<svg width="24" height="24" viewBox="0 0 24 24" xmlns="http://www.w3.org/2000/svg">
<path d="M7.2 17.6C8.96731 17.6 10.4 16.1673 10.4 14.4C10.4 12.6326 8.96731 11.2 7.2 11.2C5.43269 11.2 4 12.6326 4 14.4C4 16.1673 5.43269 17.6 7.2 17.6Z"/>
<path d="M14.7998 20C15.9044 20 16.7998 19.1046 16.7998 18C16.7998 16.8954 15.9044 16 14.7998 16C13.6952 16 12.7998 16.8954 12.7998 18C12.7998 19.1046 13.6952 20 14.7998 20Z"/>
<path d="M15.1999 13.6C17.8509 13.6 19.9999 11.451 19.9999 8.8C19.9999 6.14903 17.8509 4 15.1999 4C12.5489 4 10.3999 6.14903 10.3999 8.8C10.3999 11.451 12.5489 13.6 15.1999 13.6Z"/>
</svg>