<svg width="24" height="24" viewBox="0 0 24 24" fill="none" xmlns="http://www.w3.org/2000/svg">
<g clip-path="url(#clip0_19_25338)">
<path d="M7.52957 21.48C4.25957 19.94 1.91957 16.76 1.55957 13H0.0595703C0.56957 19.16 5.71957 24 12.0096 24L12.6696 23.97L8.85957 20.16L7.52957 21.48ZM8.41957 14.96C8.22957 14.96 8.04957 14.93 7.89957 14.88C7.73957 14.82 7.60957 14.75 7.49957 14.64C7.38957 14.54 7.29957 14.42 7.23957 14.27C7.17957 14.13 7.14957 13.97 7.14957 13.8H5.84957C5.84957 14.16 5.91957 14.48 6.05957 14.75C6.19957 15.02 6.38957 15.25 6.61957 15.44C6.85957 15.62 7.12957 15.76 7.43957 15.85C7.73957 15.95 8.05957 16 8.39957 16C8.76957 16 9.11957 15.95 9.42957 15.85C9.74957 15.75 10.0296 15.6 10.2596 15.41C10.4896 15.22 10.6796 14.98 10.8096 14.69C10.9396 14.4 11.0096 14.08 11.0096 13.72C11.0096 13.53 10.9896 13.34 10.9396 13.16C10.8896 12.98 10.8196 12.81 10.7096 12.65C10.6096 12.49 10.4696 12.35 10.3096 12.22C10.1396 12.09 9.93957 11.99 9.69957 11.91C9.89957 11.82 10.0696 11.71 10.2196 11.58C10.3696 11.45 10.4896 11.31 10.5896 11.16C10.6896 11.01 10.7596 10.86 10.8096 10.7C10.8596 10.54 10.8796 10.38 10.8796 10.22C10.8796 9.86 10.8196 9.54 10.6996 9.26C10.5796 8.98 10.4096 8.75 10.1896 8.57C9.98957 8.38 9.71957 8.24 9.41957 8.14C9.10957 8.05 8.76957 8 8.39957 8C8.03957 8 7.70957 8.05 7.39957 8.16C7.09957 8.27 6.82957 8.42 6.60957 8.61C6.39957 8.8 6.22957 9.02 6.09957 9.28C5.97957 9.54 5.91957 9.82 5.91957 10.13H7.21957C7.21957 9.96 7.24957 9.81 7.30957 9.68C7.36957 9.55 7.44957 9.43 7.55957 9.34C7.66957 9.25 7.78957 9.17 7.93957 9.12C8.08957 9.07 8.23957 9.04 8.41957 9.04C8.81957 9.04 9.11957 9.14 9.30957 9.35C9.49957 9.55 9.59957 9.84 9.59957 10.21C9.59957 10.39 9.56957 10.55 9.51957 10.7C9.46957 10.85 9.37957 10.97 9.26957 11.07C9.15957 11.17 9.01957 11.25 8.85957 11.31C8.69957 11.37 8.49957 11.4 8.27957 11.4H7.50957V12.43H8.27957C8.49957 12.43 8.69957 12.45 8.87957 12.5C9.05957 12.55 9.20957 12.63 9.32957 12.73C9.44957 12.84 9.54957 12.97 9.61957 13.13C9.68957 13.29 9.71957 13.48 9.71957 13.7C9.71957 14.11 9.59957 14.42 9.36957 14.63C9.13957 14.86 8.81957 14.96 8.41957 14.96ZM16.9696 9.04C16.6496 8.71 16.2696 8.45 15.8296 8.27C15.3896 8.09 14.8996 8 14.3596 8H11.9996V16H14.2996C14.8496 16 15.3596 15.91 15.8096 15.73C16.2596 15.55 16.6496 15.3 16.9696 14.97C17.2896 14.64 17.5396 14.24 17.7096 13.78C17.8796 13.31 17.9696 12.79 17.9696 12.21V11.81C17.9696 11.23 17.8796 10.71 17.7096 10.24C17.5396 9.77 17.2896 9.37 16.9696 9.04ZM16.5796 12.2C16.5796 12.62 16.5296 12.99 16.4396 13.33C16.3396 13.66 16.1996 13.95 16.0096 14.18C15.8196 14.41 15.5796 14.59 15.2996 14.71C15.0096 14.83 14.6796 14.89 14.3096 14.89H13.3996V9.12H14.3696C15.0896 9.12 15.6396 9.35 16.0096 9.81C16.3896 10.27 16.5796 10.93 16.5796 11.8V12.2ZM12.0096 0L11.3496 0.03L15.1596 3.84L16.4896 2.51C19.7596 4.06 22.0996 7.23 22.4496 10.99H23.9496C23.4496 4.84 18.2996 0 12.0096 0Z" fill="#FCFCFD"/>
</g>
<defs>
<clipPath id="clip0_19_25338">
<rect width="24" height="24" fill="white"/>
</clipPath>
</defs>
</svg>
