<svg width="24" height="24" viewBox="0 0 24 24" xmlns="http://www.w3.org/2000/svg">
<path d="M10.0404 6.29006C10.6604 6.11006 11.3204 6.00006 12.0004 6.00006C15.8604 6.00006 19.0004 9.14006 19.0004 13.0001C19.0004 13.6801 18.8904 14.3401 18.7104 14.9601L20.2704 16.5201C20.7404 15.4401 21.0004 14.2501 21.0004 13.0001C21.0004 8.03006 16.9704 4.00006 12.0004 4.00006C10.7504 4.00006 9.56035 4.26006 8.47035 4.72006L10.0404 6.29006ZM17.3374 1.81006L21.9444 5.65506L20.6644 7.19006L16.0544 3.34706L17.3374 1.81006ZM3.02035 2.10006L1.61035 3.51006L2.98035 4.88006L2.06035 5.65006L3.34035 7.19006L4.40035 6.31006L5.20035 7.11006C3.83035 8.69006 3.00035 10.7501 3.00035 13.0001C3.00035 17.9701 7.03035 22.0001 12.0004 22.0001C14.2504 22.0001 16.3104 21.1701 17.8904 19.8001L19.9904 21.9001L21.4004 20.4901L3.02035 2.10006ZM12.0004 20.0001C8.14035 20.0001 5.00035 16.8601 5.00035 13.0001C5.00035 11.3001 5.61035 9.74006 6.62035 8.53006L16.4704 18.3801C15.2604 19.3901 13.7004 20.0001 12.0004 20.0001ZM7.48035 3.73006L7.94035 3.35006L6.66035 1.81006L6.06035 2.31006L7.48035 3.73006Z"/>
</svg>