<svg width="24" height="24" viewBox="0 0 24 24" fill="currentColor" xmlns="http://www.w3.org/2000/svg">
<path d="M10.5396 14.5301L8.40964 12.4001L7.34964 13.4601L10.5296 16.6401L16.5296 10.6401L15.4696 9.58006L10.5396 14.5301ZM17.3366 1.81006L21.9436 5.65506L20.6636 7.19006L16.0536 3.34706L17.3366 1.81006ZM6.66264 1.81006L7.94464 3.34606L3.33664 7.19006L2.05664 5.65406L6.66264 1.81006ZM11.9996 4.00006C7.02964 4.00006 2.99964 8.03006 2.99964 13.0001C2.99964 17.9701 7.02964 22.0001 11.9996 22.0001C16.9696 22.0001 20.9996 17.9701 20.9996 13.0001C20.9996 8.03006 16.9696 4.00006 11.9996 4.00006ZM11.9996 20.0001C8.13964 20.0001 4.99964 16.8601 4.99964 13.0001C4.99964 9.14006 8.13964 6.00006 11.9996 6.00006C15.8596 6.00006 18.9996 9.14006 18.9996 13.0001C18.9996 16.8601 15.8596 20.0001 11.9996 20.0001Z"/>
</svg>