<svg width="24" height="24" viewBox="0 0 24 24" fill="none" xmlns="http://www.w3.org/2000/svg">
<g clip-path="url(#clip0_19_25509)">
<path d="M22.6097 18.99L13.5297 9.90997C14.4597 7.56997 13.9797 4.80997 12.0897 2.90997C9.78972 0.609971 6.20972 0.399971 3.65972 2.25997L7.49972 6.10997L6.07972 7.51997L2.24972 3.68997C0.389717 6.22997 0.599717 9.81997 2.89972 12.11C4.75972 13.97 7.46972 14.46 9.78972 13.59L18.8997 22.7C19.2897 23.09 19.9197 23.09 20.3097 22.7L22.6097 20.4C23.0097 20.02 23.0097 19.39 22.6097 18.99ZM19.6097 20.59L10.1497 11.13C9.53972 11.58 8.85972 11.85 8.14972 11.95C6.78972 12.15 5.35972 11.74 4.31972 10.7C3.36972 9.75997 2.92972 8.49997 2.99972 7.25997L6.08972 10.35L10.3297 6.10997L7.23972 3.01997C8.47972 2.94997 9.72972 3.38997 10.6797 4.32997C11.7597 5.40997 12.1697 6.89997 11.9197 8.28997C11.7997 8.99997 11.4997 9.65997 11.0397 10.25L20.4897 19.7L19.6097 20.59Z" fill="#FCFCFD"/>
</g>
<defs>
<clipPath id="clip0_19_25509">
<rect width="24" height="24" fill="white"/>
</clipPath>
</defs>
</svg>
