<svg width="24" height="24" viewBox="0 0 24 24" xmlns="http://www.w3.org/2000/svg">
<path d="M16.5 9C16.08 9 15.67 9.04 15.26 9.11L1.01 3L1 10L11.06 11.34C10.64 11.78 10.28 12.27 9.97 12.8L1 14L1.01 21L9.08 17.54C9.59 21.19 12.71 24 16.5 24C20.64 24 24 20.64 24 16.5C24 12.36 20.64 9 16.5 9ZM3 8.25L3.01 6.03L10.52 9.25L3 8.25ZM9.1 15.36L3 17.97V15.75L9.17 14.93C9.14 15.07 9.12 15.21 9.1 15.36ZM16.5 22C13.47 22 11 19.53 11 16.5C11 13.47 13.47 11 16.5 11C19.53 11 22 13.47 22 16.5C22 19.53 19.53 22 16.5 22Z"/>
<path d="M18.2703 14.0298L16.5003 15.7898L14.7303 14.0298L14.0303 14.7298L15.7903 16.4998L14.0303 18.2698L14.7303 18.9698L16.5003 17.2098L18.2703 18.9698L18.9703 18.2698L17.2103 16.4998L18.9703 14.7298L18.2703 14.0298Z"/>
</svg>