<svg width="24" height="24" viewBox="0 0 24 24" fill="currentColor" xmlns="http://www.w3.org/2000/svg">
<path d="M12 2C6.48 2 2 6.48 2 12C2 17.52 6.48 22 12 22C17.52 22 22 17.52 22 12C22 6.48 17.52 2 12 2ZM12 20C7.58 20 4 16.42 4 12C4 7.58 7.58 4 12 4C16.42 4 20 7.58 20 12C20 16.42 16.42 20 12 20Z"/>
<path d="M7.09961 10.1801C7.35961 10.7401 7.48961 11.3401 7.49961 11.9801C7.50961 12.6101 7.36961 13.2301 7.09961 13.8401L8.46961 14.4601C8.83961 13.6501 9.01961 12.8101 9.00961 11.9601C8.99961 11.1201 8.81961 10.3101 8.46961 9.56006L7.09961 10.1801Z"/>
<path d="M13.3301 7.33016C14.1101 8.90016 14.5101 10.4702 14.5101 11.9702C14.5101 13.4802 14.1101 15.0602 13.3301 16.6602L14.6801 17.3202C15.5601 15.5102 16.0101 13.7102 16.0101 11.9702C16.0101 10.2302 15.5601 8.44016 14.6801 6.66016L13.3301 7.33016Z"/>
<path d="M10.2002 8.7198C10.7302 9.7898 11.0002 10.9298 11.0002 12.1198C11.0002 13.2898 10.7402 14.3498 10.2202 15.2698L11.5202 16.0098C12.1702 14.8598 12.5002 13.5598 12.5002 12.1198C12.5002 10.6998 12.1802 9.3298 11.5402 8.0498L10.2002 8.7198Z"/>
</svg>