<svg width="24" height="24" viewBox="0 0 24 24" xmlns="http://www.w3.org/2000/svg">
<path d="M6.05043 8.05C3.32043 10.78 3.32043 15.22 6.05043 17.95C7.42043 19.32 9.21043 20 11.0004 20C12.7904 20 14.5804 19.32 15.9504 17.95C19.4304 14.47 20.0004 4 20.0004 4C20.0004 4 9.53043 4.57 6.05043 8.05ZM14.5404 16.54C13.5904 17.48 12.3404 18 11.0004 18C10.1104 18 9.27043 17.75 8.52043 17.32C9.44043 14.44 11.1404 11.91 13.4004 10C10.7704 11.36 8.56043 13.46 7.03043 16C5.55043 14.04 5.68043 11.25 7.47043 9.46C9.21043 7.72 14.0404 6.65 17.8004 6.2C17.3504 9.96 16.2804 14.79 14.5404 16.54Z"/>
</svg>