<svg width="24" height="24" viewBox="0 0 24 24" fill="none" xmlns="http://www.w3.org/2000/svg">
<g clip-path="url(#clip0_19_25952)">
<path d="M17.9998 23.9998H11.4498C10.3698 23.9998 9.30977 23.5498 8.55977 22.7698L1.25977 15.1598L3.32977 13.3298C3.94977 12.7798 4.85977 12.6698 5.58977 13.0598L7.99977 14.3398V4.78977C7.99977 3.40977 9.11977 2.28977 10.4998 2.28977C10.6698 2.28977 10.8398 2.30977 11.0098 2.33977C11.0998 1.03977 12.1798 0.00976562 13.4998 0.00976562C14.3598 0.00976562 15.1098 0.439766 15.5598 1.09977C15.8498 0.979766 16.1698 0.919766 16.4998 0.919766C17.8798 0.919766 18.9998 2.03977 18.9998 3.41977V3.69977C19.1598 3.66977 19.3298 3.64977 19.4998 3.64977C20.8798 3.64977 21.9998 4.76977 21.9998 6.14977V19.9998C21.9998 22.2098 20.2098 23.9998 17.9998 23.9998ZM4.13977 15.2798L9.99977 21.3798C10.3798 21.7698 10.8998 21.9998 11.4398 21.9998H17.9998C19.0998 21.9998 19.9998 21.0998 19.9998 19.9998V6.14977C19.9998 5.86977 19.7798 5.64977 19.4998 5.64977C19.2198 5.64977 18.9998 5.86977 18.9998 6.14977V11.9998H16.9998V3.41977C16.9998 3.13977 16.7798 2.91977 16.4998 2.91977C16.2198 2.91977 15.9998 3.13977 15.9998 3.41977V11.9998H13.9998V2.50977C13.9998 2.22977 13.7798 2.00977 13.4998 2.00977C13.2198 2.00977 12.9998 2.22977 12.9998 2.50977V11.9998H10.9998V4.78977C10.9998 4.50977 10.7798 4.28977 10.4998 4.28977C10.2198 4.28977 9.99977 4.51977 9.99977 4.78977V17.6598L4.64977 14.8298L4.13977 15.2798Z" fill="#FCFCFD"/>
</g>
<defs>
<clipPath id="clip0_19_25952">
<rect width="24" height="24" fill="white"/>
</clipPath>
</defs>
</svg>
