<svg width="24" height="24" viewBox="0 0 24 24" fill="currentColor" xmlns="http://www.w3.org/2000/svg">
<path d="M14 2H6C4.9 2 4 2.9 4 4V20C4 21.1 4.89 22 5.99 22H18C19.1 22 20 21.1 20 20V8L14 2ZM18 20H6V4H13V9H18V20Z"/>
<path d="M9.03043 11.0299C7.66043 12.3999 7.66043 14.6099 9.03043 15.9799C10.1504 17.0999 11.8304 17.2899 13.1604 16.5699L15.0404 18.4499L16.4504 17.0399L14.5704 15.1599C15.2804 13.8299 15.1004 12.1499 13.9804 11.0299C12.6104 9.65994 10.3904 9.65994 9.03043 11.0299ZM12.5604 14.5599C11.9704 15.1499 11.0204 15.1499 10.4404 14.5599C9.85043 13.9699 9.85043 13.0199 10.4404 12.4399C11.0304 11.8499 11.9804 11.8499 12.5604 12.4399C13.1504 13.0299 13.1504 13.9699 12.5604 14.5599Z"/>
</svg>