<svg width="24" height="24" viewBox="0 0 24 24" fill="none" xmlns="http://www.w3.org/2000/svg">
<g clip-path="url(#clip0_19_26159)">
<path d="M15 9H9C8.45 9 8 9.45 8 10V22C8 22.55 8.45 23 9 23H15C15.55 23 16 22.55 16 22V10C16 9.45 15.55 9 15 9ZM14 21H10V11H14V21Z" fill="#FCFCFD"/>
<path d="M12 14C12.5523 14 13 13.5523 13 13C13 12.4477 12.5523 12 12 12C11.4477 12 11 12.4477 11 13C11 13.5523 11.4477 14 12 14Z" fill="#FCFCFD"/>
<path d="M7.04973 6.05L8.45973 7.46C9.36973 6.56 10.6197 6 11.9997 6C13.3797 6 14.6297 6.56 15.5397 7.46L16.9497 6.05C15.6797 4.78 13.9297 4 11.9997 4C10.0697 4 8.31973 4.78 7.04973 6.05ZM11.9997 0C8.95973 0 6.20973 1.23 4.21973 3.22L5.62973 4.63C7.25973 3.01 9.50973 2 11.9997 2C14.4897 2 16.7397 3.01 18.3597 4.64L19.7697 3.23C17.7897 1.23 15.0397 0 11.9997 0Z" fill="#FCFCFD"/>
</g>
<defs>
<clipPath id="clip0_19_26159">
<rect width="24" height="24" fill="white"/>
</clipPath>
</defs>
</svg>
