<svg width="24" height="24" viewBox="0 0 24 24" fill="currentColor" xmlns="http://www.w3.org/2000/svg">
<path d="M7.93965 5.12L6.48965 3.66C8.06965 2.61 9.95965 2 11.9996 2C17.5196 2 21.9996 6.48 21.9996 12C21.9996 14.04 21.3896 15.93 20.3396 17.51L18.8796 16.05C19.5896 14.86 19.9996 13.48 19.9996 12C19.9996 7.59 16.4096 4 11.9996 4C10.5196 4 9.13965 4.41 7.93965 5.12ZM17.6596 9.53L16.2496 8.12L13.5996 10.77L15.0096 12.18L17.6596 9.53ZM19.7796 22.61L17.5096 20.34C15.9296 21.39 14.0396 22 11.9996 22C6.47965 22 1.99965 17.52 1.99965 12C1.99965 9.96 2.60965 8.07 3.65965 6.49L1.38965 4.22L2.79965 2.81L21.1796 21.19L19.7796 22.61ZM16.0596 18.88L12.1796 15L10.5896 16.59L6.34965 12.35L7.75965 10.94L10.5896 13.77L10.7696 13.59L5.11965 7.94C4.40965 9.14 3.99965 10.52 3.99965 12C3.99965 16.41 7.58965 20 11.9996 20C13.4796 20 14.8596 19.59 16.0596 18.88Z"/>
</svg>