<svg width="24" height="24" viewBox="0 0 24 24" xmlns="http://www.w3.org/2000/svg">
<path d="M10.0002 3.99984H14.0002V5.99984H10.4002L12.4002 7.99984H20.0002V15.5998L22.0002 17.5998V7.99984C22.0002 6.88984 21.1102 5.99984 20.0002 5.99984H16.0002V3.99984C16.0002 2.88984 15.1102 1.99984 14.0002 1.99984H10.0002C9.01023 1.99984 8.20023 2.69984 8.04023 3.63984L10.0002 5.59984V3.99984ZM3.40023 1.83984L1.99023 3.24984L4.74023 5.99984H4.00023C2.89023 5.99984 2.01023 6.88984 2.01023 7.99984L2.00023 18.9998C2.00023 20.1098 2.89023 20.9998 4.00023 20.9998H19.7402L21.7402 22.9998L23.1502 21.5898L3.40023 1.83984ZM4.00023 18.9998V7.99984H6.74023L17.7402 18.9998H4.00023Z"/>
</svg>