<svg width="24" height="24" viewBox="0 0 24 24" fill="currentColor" xmlns="http://www.w3.org/2000/svg">
<path d="M13.1272 14.56L14.5572 13.13L20.9972 19.573L19.5702 21L13.1272 14.56ZM17.4202 8.82998L20.2802 5.96998C16.3302 2.01998 9.93023 2.00998 5.98023 5.94998C9.91023 4.64998 14.2902 5.69998 17.4202 8.82998ZM5.95023 5.97998C2.01023 9.92998 2.02023 16.33 5.97023 20.28L8.83023 17.42C5.70023 14.29 4.65023 9.90998 5.95023 5.97998ZM5.97023 5.95998L5.96023 5.96998C5.58023 8.97998 7.13023 12.85 10.2602 15.99L15.9902 10.26C12.8602 7.12998 8.98023 5.57998 5.97023 5.95998Z"/>
</svg>