<svg width="24" height="24" viewBox="0 0 24 24" fill="currentColor" xmlns="http://www.w3.org/2000/svg">
<path d="M21.5998 18.1999L12.9998 11.7499V10.8399C14.6498 10.3499 15.7998 8.66991 15.4298 6.78991C15.1698 5.47991 14.1298 4.38991 12.8198 4.08991C10.5398 3.56991 8.49977 5.29991 8.49977 7.49991H10.4998C10.4998 6.66991 11.1698 5.99991 11.9998 5.99991C12.8298 5.99991 13.4998 6.66991 13.4998 7.49991C13.4998 8.33991 12.8098 9.01991 11.9698 8.99991C11.4298 8.98991 10.9998 9.44991 10.9998 9.98991V11.7499L2.39977 18.1999C1.62977 18.7799 2.03977 19.9999 2.99977 19.9999H11.9998H20.9998C21.9598 19.9999 22.3698 18.7799 21.5998 18.1999ZM5.99977 17.9999L11.9998 13.4999L17.9998 17.9999H5.99977Z"/>
</svg>