<svg width="24" height="24" viewBox="0 0 24 24" fill="currentColor" xmlns="http://www.w3.org/2000/svg">
<path d="M6.00014 18.0001C7.10014 18.0001 8.00014 18.9001 8.00014 20.0001C8.00014 21.1001 7.10014 22.0001 6.00014 22.0001C4.90014 22.0001 4.00014 21.1001 4.00014 20.0001C4.00014 18.9001 4.90014 18.0001 6.00014 18.0001ZM18.6501 3.00006C16.9901 3.00006 16.1101 4.27006 15.4701 5.03006L11.9701 9.14006L17.0001 14.1701V6.27006C17.5801 5.59006 17.9701 5.00006 18.6501 5.00006C19.4201 5.00006 20.0001 5.66006 20.0001 6.48006V7.00006H22.0001V6.48006C22.0001 4.56006 20.5201 3.00006 18.6501 3.00006ZM10.6701 10.6701L2.81014 2.81006L1.39014 4.22006L9.36014 12.1901L6.70014 15.3101C6.15014 15.9601 6.61014 16.9601 7.46014 16.9601H14.1201L15.2901 18.1301C14.5401 18.4201 14.0001 19.1401 14.0001 20.0001C14.0001 21.1001 14.9001 22.0001 16.0001 22.0001C16.8601 22.0001 17.5801 21.4601 17.8701 20.7001L19.7801 22.6101L21.1901 21.2001L16.3901 16.4001L10.6701 10.6701ZM13.4701 5.03006C13.7401 4.71006 14.0501 4.31006 14.4501 3.94006C11.9901 2.75006 9.13014 2.72006 6.64014 3.81006L10.8901 8.06006L13.4701 5.03006Z"/>
</svg>