<svg width="24" height="24" viewBox="0 0 24 24" fill="none" xmlns="http://www.w3.org/2000/svg">
<g clip-path="url(#clip0_20_19975)">
<path d="M22 20.9999C20.89 20.9999 20.27 20.6299 19.82 20.3599C19.45 20.1399 19.22 19.9999 18.67 19.9999C18.11 19.9999 17.89 20.1299 17.52 20.3599C17.06 20.6299 16.45 20.9999 15.34 20.9999C14.23 20.9999 13.61 20.6299 13.16 20.3599C12.79 20.1399 12.56 19.9999 12.01 19.9999C11.45 19.9999 11.23 20.1299 10.86 20.3599C10.4 20.6299 9.78 20.9999 8.67 20.9999C7.56 20.9999 6.94 20.6299 6.49 20.3599C6.12 20.1299 5.89 19.9999 5.34 19.9999C4.79 19.9999 4.56 20.1299 4.19 20.3599C3.73 20.6299 3.11 20.9999 2 20.9999V18.9999C2.56 18.9999 2.78 18.8699 3.15 18.6399C3.61 18.3699 4.23 17.9999 5.34 17.9999C6.45 17.9999 7.07 18.3699 7.52 18.6399C7.89 18.8699 8.11 18.9999 8.67 18.9999C9.23 18.9999 9.45 18.8699 9.82 18.6399C10.28 18.3699 10.9 17.9999 12.01 17.9999C13.12 17.9999 13.74 18.3699 14.19 18.6399C14.56 18.8599 14.79 18.9999 15.34 18.9999C15.89 18.9999 16.12 18.8699 16.49 18.6399C16.94 18.3699 17.56 17.9999 18.67 17.9999C19.78 17.9999 20.4 18.3699 20.85 18.6399C21.22 18.8699 21.44 18.9999 22 18.9999V20.9999ZM22 16.4999C20.89 16.4999 20.27 16.1299 19.82 15.8599C19.45 15.6399 19.22 15.4999 18.67 15.4999C18.11 15.4999 17.89 15.6299 17.52 15.8599C17.07 16.1299 16.45 16.4999 15.34 16.4999C14.23 16.4999 13.61 16.1299 13.16 15.8599C12.79 15.6399 12.56 15.4999 12.01 15.4999C11.45 15.4999 11.23 15.6299 10.86 15.8599C10.41 16.1299 9.79 16.4999 8.68 16.4999C7.57 16.4999 6.95 16.1299 6.5 15.8599C6.13 15.6399 5.9 15.4999 5.35 15.4999C4.8 15.4999 4.57 15.6299 4.2 15.8599C3.73 16.1299 3.11 16.4999 2 16.4999V14.4999C2.56 14.4999 2.78 14.3699 3.15 14.1399C3.6 13.8699 4.22 13.4999 5.33 13.4999C6.44 13.4999 7.06 13.8699 7.51 14.1399C7.88 14.3599 8.11 14.4999 8.66 14.4999C9.22 14.4999 9.44 14.3699 9.81 14.1399C10.26 13.8699 10.88 13.4999 11.99 13.4999C13.1 13.4999 13.72 13.8699 14.17 14.1399C14.54 14.3599 14.77 14.4999 15.32 14.4999C15.87 14.4999 16.1 14.3699 16.47 14.1399C16.92 13.8699 17.54 13.4999 18.65 13.4999C19.76 13.4999 20.38 13.8699 20.83 14.1399C21.2 14.3599 21.43 14.4999 21.98 14.4999V16.4999H22ZM8.67 11.9999C9.23 11.9999 9.45 11.8699 9.82 11.6399C10.28 11.3699 10.9 10.9999 12.01 10.9999C13.12 10.9999 13.74 11.3699 14.19 11.6399C14.56 11.8599 14.79 11.9999 15.34 11.9999C15.89 11.9999 16.12 11.8699 16.49 11.6399C16.61 11.5699 16.75 11.4899 16.9 11.4099L10.48 4.99991C8.93 3.44991 7.5 2.98991 5 2.99991V5.49991C6.82 5.48991 7.89 5.88991 9 6.99991L10 7.99991L6.75 11.2499C7.06 11.3699 7.31 11.5199 7.52 11.6399C7.89 11.8699 8.11 11.9999 8.67 11.9999Z" fill="#FCFCFD"/>
<path d="M16.5 8C17.8807 8 19 6.88071 19 5.5C19 4.11929 17.8807 3 16.5 3C15.1193 3 14 4.11929 14 5.5C14 6.88071 15.1193 8 16.5 8Z" fill="#FCFCFD"/>
</g>
<defs>
<clipPath id="clip0_20_19975">
<rect width="24" height="24" fill="white"/>
</clipPath>
</defs>
</svg>
