<svg width="24" height="24" viewBox="0 0 24 24" fill="none" xmlns="http://www.w3.org/2000/svg">
<g clip-path="url(#clip0_20_20025)">
<path d="M16 22C17.1046 22 18 21.1046 18 20C18 18.8954 17.1046 18 16 18C14.8954 18 14 18.8954 14 20C14 21.1046 14.8954 22 16 22Z" fill="#FCFCFD"/>
<path d="M6 22C7.10457 22 8 21.1046 8 20C8 18.8954 7.10457 18 6 18C4.89543 18 4 18.8954 4 20C4 21.1046 4.89543 22 6 22Z" fill="#FCFCFD"/>
<path d="M22.0002 7V6.48C22.0002 4.56 20.5202 3 18.6502 3C16.9902 3 16.1102 4.27 15.4702 5.03L6.67019 15.35C6.12019 16 6.58019 17 7.43019 17H15.0002C16.1002 17 17.0002 16.1 17.0002 15V6.27C17.5802 5.59 17.9702 5 18.6502 5C19.4202 5 20.0002 5.66 20.0002 6.48V7H22.0002Z" fill="#FCFCFD"/>
<path d="M14.3002 4.1C13.0302 3.4 11.5602 3 10.0002 3C8.03022 3 6.21021 3.64 4.72021 4.72L9.61021 9.61L14.3002 4.1Z" fill="#FCFCFD"/>
</g>
<defs>
<clipPath id="clip0_20_20025">
<rect width="24" height="24" fill="white"/>
</clipPath>
</defs>
</svg>
