<svg width="24" height="24" viewBox="0 0 24 24" fill="currentColor" xmlns="http://www.w3.org/2000/svg">
<path d="M14.0002 4H16.0002V6H14.0002V4ZM13.0002 7H15.0002V9H13.0002V7ZM11.0002 4H13.0002V6H11.0002V4ZM18.0002 9H16.0002V7H18.0002V9ZM19.0002 6H17.0002V4H19.0002V6ZM21.0002 9H19.0002V7H21.0002V9ZM22.0002 6H20.0002V4H22.0002V6ZM14.6202 14.38L12.1002 16.9C9.60017 15.47 7.53017 13.4 6.10017 10.9L8.62017 8.38C8.86017 8.14 8.96017 7.8 8.90017 7.48L8.16017 3.8C8.07017 3.34 7.66017 3 7.18017 3H3.03017C2.47017 3 2.00017 3.47 2.03017 4.03C2.20017 6.92 3.05017 9.63 4.43017 12C6.01017 14.73 8.28017 16.99 11.0002 18.57C13.3702 19.94 16.0802 20.8 18.9702 20.97C19.5302 21 20.0002 20.53 20.0002 19.97V15.82C20.0002 15.34 19.6602 14.93 19.2002 14.84L15.5302 14.11C15.2002 14.04 14.8602 14.14 14.6202 14.38ZM14.0002 10H16.0002V12H14.0002V10ZM11.0002 10H13.0002V12H11.0002V10ZM19.0002 12H17.0002V10H19.0002V12ZM22.0002 12H20.0002V10H22.0002V12Z"/>
</svg>