<svg width="24" height="24" viewBox="0 0 24 24" xmlns="http://www.w3.org/2000/svg">
<path d="M14 7C14.5523 7 15 6.55228 15 6C15 5.44772 14.5523 5 14 5C13.4477 5 13 5.44772 13 6C13 6.55228 13.4477 7 14 7Z"/>
<path d="M13.8 11.48L14 11.5C14.83 11.5 15.5 10.83 15.5 10C15.5 9.17 14.83 8.5 14 8.5C13.17 8.5 12.5 9.17 12.5 10L12.52 10.2C12.61 10.87 13.13 11.39 13.8 11.48ZM14 3.5C14.28 3.5 14.5 3.28 14.5 3C14.5 2.72 14.28 2.5 14 2.5C13.72 2.5 13.5 2.72 13.5 3C13.5 3.28 13.72 3.5 14 3.5ZM10 3.5C10.28 3.5 10.5 3.28 10.5 3C10.5 2.72 10.28 2.5 10 2.5C9.72 2.5 9.5 2.72 9.5 3C9.5 3.28 9.72 3.5 10 3.5Z"/>
<path d="M18 11C18.5523 11 19 10.5523 19 10C19 9.44772 18.5523 9 18 9C17.4477 9 17 9.44772 17 10C17 10.5523 17.4477 11 18 11Z"/>
<path d="M18 7C18.5523 7 19 6.55228 19 6C19 5.44772 18.5523 5 18 5C17.4477 5 17 5.44772 17 6C17 6.55228 17.4477 7 18 7Z"/>
<path d="M21 10.5C21.28 10.5 21.5 10.28 21.5 10C21.5 9.72 21.28 9.5 21 9.5C20.72 9.5 20.5 9.72 20.5 10C20.5 10.28 20.72 10.5 21 10.5Z"/>
<path d="M10 7C10.5523 7 11 6.55228 11 6C11 5.44772 10.5523 5 10 5C9.44772 5 9 5.44772 9 6C9 6.55228 9.44772 7 10 7Z"/>
<path d="M18 15C18.5523 15 19 14.5523 19 14C19 13.4477 18.5523 13 18 13C17.4477 13 17 13.4477 17 14C17 14.5523 17.4477 15 18 15Z"/>
<path d="M6 19C6.55228 19 7 18.5523 7 18C7 17.4477 6.55228 17 6 17C5.44772 17 5 17.4477 5 18C5 18.5523 5.44772 19 6 19Z"/>
<path d="M14 20.5C13.72 20.5 13.5 20.72 13.5 21C13.5 21.28 13.72 21.5 14 21.5C14.28 21.5 14.5 21.28 14.5 21C14.5 20.72 14.28 20.5 14 20.5ZM21 13.5C20.72 13.5 20.5 13.72 20.5 14C20.5 14.28 20.72 14.5 21 14.5C21.28 14.5 21.5 14.28 21.5 14C21.5 13.72 21.28 13.5 21 13.5ZM3 13.5C2.72 13.5 2.5 13.72 2.5 14C2.5 14.28 2.72 14.5 3 14.5C3.28 14.5 3.5 14.28 3.5 14C3.5 13.72 3.28 13.5 3 13.5Z"/>
<path d="M10 19C10.5523 19 11 18.5523 11 18C11 17.4477 10.5523 17 10 17C9.44772 17 9 17.4477 9 18C9 18.5523 9.44772 19 10 19Z"/>
<path d="M3 9.5C2.72 9.5 2.5 9.72 2.5 10C2.5 10.28 2.72 10.5 3 10.5C3.28 10.5 3.5 10.28 3.5 10C3.5 9.72 3.28 9.5 3 9.5ZM10 20.5C9.72 20.5 9.5 20.72 9.5 21C9.5 21.28 9.72 21.5 10 21.5C10.28 21.5 10.5 21.28 10.5 21C10.5 20.72 10.28 20.5 10 20.5Z"/>
<path d="M6 15C6.55228 15 7 14.5523 7 14C7 13.4477 6.55228 13 6 13C5.44772 13 5 13.4477 5 14C5 14.5523 5.44772 15 6 15Z"/>
<path d="M2.5 5.26986L6 8.76986L6.28 9.04986L6 8.99986C5.45 8.99986 5 9.44986 5 9.99986C5 10.5499 5.45 10.9999 6 10.9999C6.55 10.9999 7 10.5499 7 9.99986C7 9.89986 6.97 9.80986 6.94 9.71986L9.75 12.5299C9.04 12.6399 8.5 13.2599 8.5 13.9999C8.5 14.8299 9.17 15.4999 10 15.4999C10.74 15.4999 11.36 14.9599 11.47 14.2499L14.28 17.0599C14.19 17.0299 14.1 16.9999 14 16.9999C13.45 16.9999 13 17.4499 13 17.9999C13 18.5499 13.45 18.9999 14 18.9999C14.55 18.9999 15 18.5499 15 17.9999C15 17.8999 14.97 17.8099 14.94 17.7199L18.72 21.4999H18.73L20.14 20.0899L3.91 3.85986L2.5 5.26986Z"/>
</svg>