<svg width="24" height="24" viewBox="0 0 24 24" xmlns="http://www.w3.org/2000/svg">
<path d="M16.1399 12.5C16.1399 13.5 16.0399 14.35 15.8399 15.05C15.6399 15.75 15.3599 16.32 15.0099 16.75C14.6499 17.19 14.2199 17.5 13.7099 17.7C13.1999 17.9 12.6399 18 12.0099 18C11.3899 18 10.8299 17.9 10.3199 17.7C9.80986 17.5 9.36986 17.19 9.00986 16.75C8.64986 16.31 8.35986 15.74 8.15986 15.05C7.95986 14.35 7.85986 13.5 7.85986 12.5V10.46C7.85986 9.46 7.95986 8.61 8.15986 7.91C8.35986 7.21 8.63986 6.65 8.99986 6.22C9.35986 5.79 9.79986 5.48 10.3099 5.29C10.8099 5.1 11.3799 5 11.9999 5C12.6299 5 13.1899 5.1 13.6999 5.29C14.2099 5.48 14.6499 5.79 15.0099 6.22C15.3699 6.65 15.6499 7.21 15.8499 7.91C16.0499 8.61 16.1499 9.45 16.1499 10.46V12.5H16.1399ZM14.0299 10.14C14.0299 9.5 13.9799 8.96 13.8999 8.52C13.8099 8.08 13.6799 7.73 13.4999 7.46C13.3299 7.19 13.1099 7 12.8599 6.88C12.6099 6.75 12.3199 6.69 11.9999 6.69C11.6799 6.69 11.3899 6.75 11.1399 6.87C10.8899 6.99 10.6699 7.18 10.4999 7.45C10.3299 7.72 10.1899 8.07 10.0999 8.51C10.0099 8.95 9.96986 9.49 9.96986 10.13V12.8C9.96986 13.44 10.0199 13.98 10.1099 14.42C10.1999 14.87 10.3399 15.23 10.5099 15.51C10.6799 15.79 10.8999 15.99 11.1499 16.12C11.3999 16.25 11.6899 16.31 12.0199 16.31C12.3499 16.31 12.6399 16.25 12.8899 16.12C13.1399 15.99 13.3499 15.79 13.5199 15.51C13.6899 15.23 13.8199 14.87 13.9099 14.42C13.9999 13.97 14.0399 13.43 14.0399 12.8V10.14H14.0299Z"/>
</svg>