<svg width="24" height="24" viewBox="0 0 24 24" fill="none" xmlns="http://www.w3.org/2000/svg">
<g clip-path="url(#clip0_19_23367)">
<path d="M17.5002 15.0002V13.0002H18.6002L19.5002 15.0002H21.0002L20.1002 12.9002C20.6002 12.6002 21.0002 12.1002 21.0002 11.5002V10.5002C21.0002 9.70023 20.3002 9.00023 19.5002 9.00023H16.0002V13.8602L17.1402 15.0002H17.5002ZM17.5002 10.5002H19.5002V11.5002H17.5002V10.5002ZM13.0002 10.5002V10.8602L14.5002 12.3602V10.5002C14.5002 9.70023 13.8002 9.00023 13.0002 9.00023H11.1402L12.6402 10.5002H13.0002ZM2.5102 2.49023L1.4502 3.55023L6.9002 9.00023H6.5002V11.0002H4.5002V9.00023H3.0002V15.0002H4.5002V12.5002H6.5002V15.0002H8.0002V10.1002L9.5002 11.6002V15.0002H12.9002L20.5002 22.6002L21.5602 21.5402L2.5102 2.49023Z" fill="#FCFCFD"/>
</g>
<defs>
<clipPath id="clip0_19_23367">
<rect width="24" height="24" fill="white"/>
</clipPath>
</defs>
</svg>
