<svg width="24" height="24" viewBox="0 0 24 24" fill="none" xmlns="http://www.w3.org/2000/svg">
<g clip-path="url(#clip0_19_23454)">
<path d="M9.99977 11L9.05977 13.06L6.99977 14L9.05977 14.94L9.99977 17L10.9398 14.94L12.9998 14L10.9398 13.06L9.99977 11ZM18.0098 4L20.0098 8H17.0098L15.0098 4H13.0098L15.0098 8H12.0098L10.0098 4H8.00977L10.0098 8H7.00977L5.00977 4H4.00977C2.90977 4 2.01977 4.9 2.01977 6L2.00977 18C2.00977 19.1 2.90977 20 4.00977 20H20.0098C21.1098 20 21.9998 19.1 21.9998 18V4H18.0098ZM20.0098 18H4.00977V6.47L5.76977 10H15.9998L15.3698 11.37L13.9998 12L15.3698 12.63L15.9998 14L16.6298 12.63L17.9998 12L16.6298 11.37L15.9998 10H20.0098V18Z" fill="#FCFCFD"/>
</g>
<defs>
<clipPath id="clip0_19_23454">
<rect width="24" height="24" fill="white"/>
</clipPath>
</defs>
</svg>
