<svg width="24" height="24" viewBox="0 0 24 24" fill="currentColor" xmlns="http://www.w3.org/2000/svg">
<path d="M-0.00976562 7.7199V9.3999L2.99023 8.3999V17.9999H4.99023V5.9999H4.74023L-0.00976562 7.7199ZM23.7702 14.3699C23.6302 14.0899 23.4202 13.8399 23.1402 13.6299C22.8602 13.4199 22.5302 13.2399 22.1302 13.0999C21.7302 12.9599 21.2802 12.8299 20.7802 12.7199C20.4302 12.6499 20.1402 12.5699 19.9102 12.4899C19.6802 12.4099 19.5002 12.3299 19.3602 12.2399C19.2202 12.1499 19.1302 12.0499 19.0802 11.9399C19.0302 11.8299 19.0002 11.6999 19.0002 11.5499C19.0002 11.4099 19.0302 11.2699 19.0902 11.1399C19.1502 11.0099 19.2402 10.8899 19.3602 10.7999C19.4802 10.6999 19.6302 10.6199 19.8102 10.5599C19.9902 10.4999 20.2102 10.4699 20.4502 10.4699C20.7002 10.4699 20.9202 10.5099 21.1102 10.5799C21.3002 10.6499 21.4602 10.7499 21.5902 10.8699C21.7202 10.9899 21.8102 11.1299 21.8802 11.2899C21.9402 11.4499 21.9802 11.6099 21.9802 11.7799H23.9302C23.9302 11.3899 23.8502 11.0299 23.6902 10.6899C23.5302 10.3499 23.3002 10.0599 23.0002 9.8099C22.7002 9.5599 22.3402 9.3699 21.9102 9.2199C21.4802 9.0699 20.9902 8.9999 20.4502 8.9999C19.9402 8.9999 19.4702 9.0699 19.0602 9.2099C18.6502 9.3499 18.2902 9.5399 18.0002 9.7799C17.7102 10.0199 17.4902 10.2999 17.3302 10.6199C17.1702 10.9399 17.1002 11.2699 17.1002 11.6299C17.1002 11.9899 17.1802 12.3199 17.3302 12.5899C17.4802 12.8699 17.6902 13.1099 17.9702 13.3199C18.2402 13.5299 18.5702 13.6999 18.9502 13.8499C19.3302 13.9899 19.7602 14.1099 20.2202 14.2099C20.6102 14.2899 20.9302 14.3799 21.1702 14.4699C21.4102 14.5599 21.6002 14.6599 21.7402 14.7599C21.8702 14.8599 21.9602 14.9799 22.0102 15.0999C22.0602 15.2199 22.0802 15.3499 22.0802 15.4899C22.0802 15.8099 21.9502 16.0599 21.6802 16.2599C21.4102 16.4599 21.0202 16.5499 20.5102 16.5499C20.2902 16.5499 20.0802 16.5299 19.8702 16.4699C19.6602 16.4199 19.4702 16.3399 19.3102 16.2299C19.1402 16.1199 19.0102 15.9699 18.9002 15.7899C18.7902 15.6099 18.7302 15.3799 18.7202 15.1199H16.8302C16.8302 15.4799 16.9102 15.8299 17.0702 16.1699C17.2302 16.5099 17.4602 16.8199 17.7702 17.0999C18.0802 17.3699 18.4602 17.5899 18.9202 17.7599C19.3802 17.9299 19.9002 18.0099 20.5002 18.0099C21.0302 18.0099 21.5102 17.9499 21.9402 17.8199C22.3702 17.6899 22.7402 17.5099 23.0502 17.2799C23.3602 17.0499 23.5902 16.7699 23.7602 16.4499C23.9302 16.1299 24.0102 15.7799 24.0102 15.3899C23.9902 14.9899 23.9202 14.6499 23.7702 14.3699ZM13.8102 7.0499C13.4702 6.6499 13.0602 6.3499 12.5802 6.1699C12.1102 5.9899 11.5702 5.8999 10.9902 5.8999C10.4102 5.8999 9.88023 5.9899 9.40023 6.1699C8.92023 6.3499 8.51023 6.6399 8.17023 7.0499C7.83023 7.4599 7.57023 7.9799 7.38023 8.6399C7.20023 9.2899 7.10023 10.0899 7.10023 11.0299V12.9499C7.10023 13.8899 7.19023 14.6899 7.38023 15.3399C7.57023 15.9999 7.83024 16.5299 8.18023 16.9399C8.52024 17.3499 8.93023 17.6499 9.41023 17.8299C9.89023 18.0099 10.4202 18.1099 11.0002 18.1099C11.5902 18.1099 12.1202 18.0199 12.5902 17.8299C13.0702 17.6499 13.4702 17.3499 13.8102 16.9399C14.1502 16.5299 14.4102 15.9999 14.5902 15.3399C14.7702 14.6899 14.8702 13.8899 14.8702 12.9499V11.0299C14.8702 10.0899 14.7802 9.2899 14.5902 8.6399C14.4102 7.9799 14.1502 7.4499 13.8102 7.0499ZM12.8902 13.2199C12.8902 13.8199 12.8502 14.3299 12.7702 14.7499C12.6902 15.1699 12.5702 15.5099 12.4102 15.7699C12.2502 16.0299 12.0502 16.2199 11.8202 16.3399C11.5902 16.4599 11.3102 16.5199 11.0002 16.5199C10.7002 16.5199 10.4202 16.4599 10.1802 16.3399C9.94024 16.2199 9.74023 16.0299 9.58023 15.7699C9.42023 15.5099 9.29023 15.1699 9.20023 14.7499C9.11023 14.3299 9.07023 13.8199 9.07023 13.2199V10.7199C9.07023 10.1199 9.11023 9.6099 9.20023 9.1999C9.29023 8.7899 9.41023 8.4599 9.58023 8.1999C9.74023 7.9499 9.94024 7.7699 10.1802 7.6499C10.4202 7.5399 10.6902 7.4799 10.9902 7.4799C11.3002 7.4799 11.5702 7.5399 11.8002 7.6499C12.0402 7.7599 12.2402 7.9399 12.4002 8.1999C12.5602 8.4499 12.6902 8.7799 12.7702 9.1899C12.8502 9.5999 12.9002 10.1099 12.9002 10.7099V13.2199H12.8902Z"/>
</svg>