<svg width="24" height="24" viewBox="0 0 24 24" xmlns="http://www.w3.org/2000/svg">
<path d="M15.0698 1.00977H9.06982V3.00977H15.0698V1.00977ZM11.0698 14.0098H13.0698V8.00977H11.0698V14.0098ZM19.0998 7.38977L20.5198 5.96977C20.0898 5.45977 19.6198 4.97977 19.1098 4.55977L17.6898 5.97977C16.1398 4.73977 14.1898 3.99977 12.0698 3.99977C7.09982 3.99977 3.06982 8.02977 3.06982 12.9998C3.06982 17.9698 7.08982 21.9998 12.0698 21.9998C17.0498 21.9998 21.0698 17.9698 21.0698 12.9998C21.0698 10.8898 20.3298 8.93977 19.0998 7.38977ZM12.0698 20.0098C8.19982 20.0098 5.06982 16.8798 5.06982 13.0098C5.06982 9.13977 8.19982 6.00977 12.0698 6.00977C15.9398 6.00977 19.0698 9.13977 19.0698 13.0098C19.0698 16.8798 15.9398 20.0098 12.0698 20.0098Z"/>
</svg>