<svg width="24" height="24" viewBox="0 0 24 24" fill="none" xmlns="http://www.w3.org/2000/svg">
<g clip-path="url(#clip0_19_23611)">
<path d="M12.0098 6C14.6198 6 16.8998 7.86 17.4098 10.43L17.7098 11.93L19.2298 12.04C20.7898 12.15 22.0098 13.45 22.0098 15C22.0098 16.65 20.6598 18 19.0098 18H6.00977C3.79977 18 2.00977 16.21 2.00977 14C2.00977 11.95 3.53977 10.24 5.56977 10.03L6.63977 9.92L7.13977 8.97C8.07977 7.14 9.94977 6 12.0098 6ZM12.0098 4C9.11977 4 6.59977 5.64 5.34977 8.04C2.34977 8.36 0.00976562 10.91 0.00976562 14C0.00976562 17.31 2.69977 20 6.00977 20H19.0098C21.7698 20 24.0098 17.76 24.0098 15C24.0098 12.36 21.9598 10.22 19.3698 10.04C18.6798 6.59 15.6498 4 12.0098 4Z" fill="#FCFCFD"/>
</g>
<defs>
<clipPath id="clip0_19_23611">
<rect width="24" height="24" fill="white"/>
</clipPath>
</defs>
</svg>
