<svg width="24" height="24" viewBox="0 0 24 24" fill="none" xmlns="http://www.w3.org/2000/svg">
<g clip-path="url(#clip0_19_23617)">
<path d="M4.9998 15H18.9998V9H4.9998V15ZM6.9998 11H16.9998V13H6.9998V11ZM10.9998 1H12.9998V4H10.9998V1ZM20.4598 5.01L19.0398 3.6L17.2498 5.39L18.6598 6.8L20.4598 5.01ZM10.9998 20H12.9998V23H10.9998V20ZM17.2398 18.71L19.0298 20.51L20.4498 19.09L18.6498 17.3L17.2398 18.71ZM4.9598 3.595L6.7478 5.385L5.3398 6.79L3.5528 5.003L4.9598 3.595ZM3.5498 19.08L4.9598 20.5L6.7498 18.7L5.3398 17.29L3.5498 19.08Z" fill="#FCFCFD"/>
</g>
<defs>
<clipPath id="clip0_19_23617">
<rect width="24" height="24" fill="white"/>
</clipPath>
</defs>
</svg>
