<svg width="24" height="24" viewBox="0 0 24 24" fill="none" xmlns="http://www.w3.org/2000/svg">
<g clip-path="url(#clip0_20_20429)">
<path d="M17.0898 11.0001H21.9498C21.7898 9.3901 21.2398 7.8901 20.4098 6.6001C18.6798 7.4301 17.4198 9.0501 17.0898 11.0001Z" fill="#FCFCFD"/>
<path d="M6.9098 11.0001C6.5798 9.0501 5.3198 7.4301 3.5898 6.6001C2.7598 7.8901 2.2098 9.3901 2.0498 11.0001H6.9098Z" fill="#FCFCFD"/>
<path d="M15.07 11C15.39 8.41005 16.95 6.21005 19.13 5.00005C17.53 3.37005 15.39 2.29005 13 2.05005V11H15.07Z" fill="#FCFCFD"/>
<path d="M8.92963 11H10.9996V2.05005C8.60963 2.29005 6.45963 3.37005 4.86963 5.00005C7.04963 6.21005 8.60963 8.41005 8.92963 11Z" fill="#FCFCFD"/>
<path d="M15.07 13H13V21.95C15.39 21.71 17.54 20.63 19.13 19C16.95 17.79 15.39 15.59 15.07 13Z" fill="#FCFCFD"/>
<path d="M3.5898 17.4C5.3098 16.57 6.5798 14.94 6.9098 13H2.0498C2.2098 14.61 2.7598 16.11 3.5898 17.4Z" fill="#FCFCFD"/>
<path d="M17.0898 13C17.4198 14.95 18.6798 16.57 20.4098 17.4C21.2398 16.11 21.7898 14.61 21.9498 13H17.0898Z" fill="#FCFCFD"/>
<path d="M8.92963 13C8.60963 15.59 7.04963 17.79 4.86963 19C6.46963 20.63 8.60963 21.71 10.9996 21.95V13H8.92963Z" fill="#FCFCFD"/>
</g>
<defs>
<clipPath id="clip0_20_20429">
<rect width="24" height="24" fill="white"/>
</clipPath>
</defs>
</svg>
