<svg width="24" height="24" viewBox="0 0 24 24" fill="none" xmlns="http://www.w3.org/2000/svg">
<g clip-path="url(#clip0_20_20465)">
<path d="M3.0201 15.6199C2.9401 18.0399 3.3401 19.9599 3.6901 20.3099C4.0401 20.6599 5.9701 21.0699 8.3801 20.9799L3.0201 15.6199Z" fill="#FCFCFD"/>
<path d="M13.0803 3.28003C10.7503 3.70003 8.29027 4.62003 6.46027 6.46003C4.63027 8.30003 3.70027 10.75 3.28027 13.08L10.9103 20.71C13.2503 20.3 15.7003 19.37 17.5303 17.53C19.3603 15.69 20.2903 13.24 20.7103 10.91L13.0803 3.28003ZM9.90027 15.5L8.50027 14.1L14.1003 8.50003L15.5003 9.90003L9.90027 15.5Z" fill="#FCFCFD"/>
<path d="M20.9801 8.37992C21.0601 5.95992 20.6601 4.03992 20.3101 3.68992C19.9601 3.33992 18.0301 2.92992 15.6201 3.01992L20.9801 8.37992Z" fill="#FCFCFD"/>
</g>
<defs>
<clipPath id="clip0_20_20465">
<rect width="24" height="24" fill="white"/>
</clipPath>
</defs>
</svg>
