<svg width="24" height="24" viewBox="0 0 24 24" fill="none" xmlns="http://www.w3.org/2000/svg">
<g clip-path="url(#clip0_20_20542)">
<path d="M6 4.01001C3.58 5.84001 2 8.73001 2 12C2 13.46 2.32 14.85 2.89 16.11L6 14.31V4.01001Z" fill="#FCFCFD"/>
<path d="M11 11.42V2.05005C9.94 2.16005 8.93 2.43005 8 2.84005V13.16L11 11.42Z" fill="#FCFCFD"/>
<path d="M12.0001 13.1501L3.89014 17.8301C4.50014 18.6701 5.23014 19.4201 6.07014 20.0301L15.0001 14.8901L12.0001 13.1501Z" fill="#FCFCFD"/>
<path d="M13 7.95996V11.42L21.11 16.1C21.53 15.17 21.81 14.17 21.93 13.12L13 7.95996Z" fill="#FCFCFD"/>
<path d="M8.06982 21.2C9.27982 21.71 10.5998 22 11.9998 22C15.3398 22 18.2898 20.35 20.1098 17.84L16.9998 16.04L8.06982 21.2Z" fill="#FCFCFD"/>
<path d="M21.92 10.81C21.37 6.18005 17.66 2.51005 13 2.05005V5.65005L21.92 10.81Z" fill="#FCFCFD"/>
</g>
<defs>
<clipPath id="clip0_20_20542">
<rect width="24" height="24" fill="white"/>
</clipPath>
</defs>
</svg>
