<svg width="24" height="24" viewBox="0 0 24 24" xmlns="http://www.w3.org/2000/svg">
<path d="M12.0001 11.39C12.0001 10.74 11.6101 10.16 11.0201 9.91005L5.44014 7.55005C3.96014 9.23005 3.12014 11.25 2.64014 13H10.3901C11.2801 13 12.0001 12.28 12.0001 11.39Z"/>
<path d="M21.96 11.2201C21.55 6.8101 17.4 3.7301 12.98 4.0201C10.47 4.1801 8.54 4.9601 7.05 6.0601L11.79 8.0701C13.12 8.6401 13.99 9.9401 13.99 11.3901C13.99 13.3801 12.37 15.0001 10.38 15.0001H2.21C2 16.3101 2 17.2001 2 17.2001V18.0001C2 19.1001 2.9 20.0001 4 20.0001H14C18.67 20.0001 22.41 15.9901 21.96 11.2201Z"/>
</svg>