<svg width="24" height="24" viewBox="0 0 24 24" fill="currentColor" xmlns="http://www.w3.org/2000/svg">
<path d="M14.2698 6.00002C13.7198 6.95002 14.0498 8.18002 14.9998 8.73002C15.9498 9.28001 17.1798 8.95002 17.7298 8.00002C18.2798 7.05002 17.9498 5.82002 16.9998 5.27002C16.0498 4.72002 14.8198 5.05002 14.2698 6.00002Z"/>
<path d="M15.8398 10.4098C15.8398 10.4098 14.2098 9.46984 13.2398 8.90984C10.8598 7.52984 10.0398 4.46984 11.4198 2.08984L9.68976 1.08984C8.09976 3.82984 8.59977 7.20984 10.6598 9.39984L5.50977 18.3198L7.23977 19.3198L8.73977 16.7198L10.4698 17.7198L7.46977 22.9198L9.19977 23.9198L15.4898 13.0298C16.6298 14.5798 16.8198 16.7198 15.7998 18.4898L17.5298 19.4898C19.1298 16.7398 18.8098 12.9098 15.8398 10.4098Z"/>
<path d="M12.7497 3.7999C13.4697 4.2099 14.3797 3.9699 14.7997 3.2499C15.2097 2.5299 14.9697 1.6199 14.2497 1.1999C13.5297 0.789899 12.6197 1.0299 12.1997 1.7499C11.7897 2.4699 12.0297 3.3899 12.7497 3.7999Z"/>
</svg>