<svg width="24" height="24" viewBox="0 0 24 24" fill="currentColor" xmlns="http://www.w3.org/2000/svg">
<path d="M20.0001 4H6.83008L14.8301 12H20.0001V14H16.8301L21.7601 18.93C21.9101 18.65 22.0001 18.34 22.0001 18V6C22.0001 4.9 21.1001 4 20.0001 4Z"/>
<path d="M1.04004 3.86995L2.24004 5.06995C2.09004 5.34995 2.00004 5.65995 2.00004 5.99995V18C2.00004 19.1 2.90004 20 4.00004 20H17.17L20.13 22.9599L21.54 21.5499L2.45004 2.44995L1.04004 3.86995ZM8.00004 12V14H4.00004V12H8.00004ZM14 16.83V18H4.00004V16H13.17L14 16.83Z"/>
</svg>