<svg width="24" height="24" viewBox="0 0 24 24" xmlns="http://www.w3.org/2000/svg">
<path d="M23.0002 21.74L21.5402 20.28L7.21023 5.94999L3.25023 1.98999L1.99023 3.24999L4.69023 5.94999H4.05023C2.94023 5.94999 2.06023 6.83999 2.06023 7.94999L2.05023 18.95C2.05023 20.06 2.94023 20.95 4.05023 20.95H19.6902L21.7402 23L23.0002 21.74ZM22.0002 7.94999C22.0502 6.83999 21.1602 5.94999 20.0502 5.99999H16.0502V3.94999C16.0502 2.83999 15.1602 1.94999 14.0502 1.99999H10.0502C8.94023 1.94999 8.05023 2.83999 8.05023 3.94999V4.26999L22.0002 18.27V7.94999ZM14.0502 5.99999H10.0002V3.94999H14.0502V5.99999Z"/>
</svg>