<svg width="24" height="24" viewBox="0 0 24 24" fill="none" xmlns="http://www.w3.org/2000/svg">
<g clip-path="url(#clip0_19_23658)">
<path d="M4 9H9C9 7.9 8.1 7 7 7H4C3.45 7 3 7.45 3 8C3 8.55 3.45 9 4 9Z" fill="#FCFCFD"/>
<path d="M22 14.0598V7.99982C22 6.89982 21.1 5.99982 20 5.99982H13.71L12.65 4.93982L14.06 3.52982L13.35 2.81982L9.82 6.34982L10.53 7.05982L11.94 5.64982L13 6.70982V8.99982C13 10.0998 12.1 10.9998 11 10.9998H8.96C8.74 10.8398 8.51 10.6998 8.27 10.5698L7.87 11.4598L7.41 11.2498L7.81 10.3498C7.26 10.1298 6.64 9.99982 6 9.99982C5.47 9.99982 4.96 10.1098 4.48 10.2598L4.82 11.1698L4.35 11.3498L4 10.4198C2.94 10.8798 2.09 11.6998 1.57 12.7298L2.46 13.1298L2.25 13.5898L1.35 13.1898C1.13 13.7398 1 14.3598 1 14.9998C1 15.5298 1.11 16.0398 1.26 16.5198L2.17 16.1798L2.35 16.6498L1.42 16.9998C1.88 18.0598 2.7 18.9098 3.73 19.4298L4.13 18.5398L4.59 18.7498L4.19 19.6498C4.74 19.8698 5.36 19.9998 6 19.9998C6.53 19.9998 7.04 19.8898 7.52 19.7398L7.18 18.8298L7.65 18.6498L8 19.5798C9.06 19.1198 9.91 18.2998 10.43 17.2698L9.54 16.8698L9.75 16.4098L10.65 16.8098C10.75 16.5498 10.83 16.2698 10.89 15.9898H16.05C16.03 16.1598 16 16.3298 16 16.4998C16 18.4298 17.57 19.9998 19.5 19.9998C21.43 19.9998 23 18.4298 23 16.4998C23 15.5498 22.62 14.6898 22 14.0598ZM6 17.9998C4.34 17.9998 3 16.6598 3 14.9998C3 13.3398 4.34 11.9998 6 11.9998C7.66 11.9998 9 13.3398 9 14.9998C9 16.6598 7.66 17.9998 6 17.9998ZM10.87 13.9998C10.83 13.8198 10.79 13.6498 10.74 13.4798L9.83 13.8198L9.65 13.3498L10.58 12.9998H11C13.21 12.9998 15 11.2098 15 8.99982V7.99982H20V13.0498C19.84 13.0298 19.67 12.9998 19.5 12.9998C18.55 12.9998 17.69 13.3798 17.06 13.9998H10.87ZM19.5 17.9998C18.67 17.9998 18 17.3298 18 16.4998C18 15.6698 18.67 14.9998 19.5 14.9998C20.33 14.9998 21 15.6698 21 16.4998C21 17.3298 20.33 17.9998 19.5 17.9998Z" fill="#FCFCFD"/>
</g>
<defs>
<clipPath id="clip0_19_23658">
<rect width="24" height="24" fill="white"/>
</clipPath>
</defs>
</svg>
