<svg width="24" height="24" viewBox="0 0 24 24" fill="currentColor" xmlns="http://www.w3.org/2000/svg">
<path d="M4.58984 6.89C5.28984 6.18 5.98984 5.54 6.29984 5.67C6.79984 5.87 6.29984 6.7 5.99984 7.19C5.74984 7.61 3.13984 11.08 3.13984 13.5C3.13984 14.78 3.61984 15.84 4.47984 16.48C5.22984 17.04 6.21984 17.21 7.11984 16.94C8.18984 16.63 9.06984 15.54 10.1798 14.17C11.3898 12.68 13.0098 10.73 14.2598 10.73C15.8898 10.73 15.9098 11.74 16.0198 12.52C12.2398 13.16 10.6398 16.19 10.6398 17.89C10.6398 19.59 12.0798 20.98 13.8498 20.98C15.4798 20.98 18.1398 19.65 18.5398 14.88H20.9998V12.38H18.5298C18.3798 10.73 17.4398 8.18 14.4998 8.18C12.2498 8.18 10.3198 10.09 9.55984 11.02C8.97984 11.75 7.49984 13.5 7.26984 13.74C7.01984 14.04 6.58984 14.58 6.15984 14.58C5.70984 14.58 5.43984 13.75 5.79984 12.66C6.14984 11.57 7.19984 9.8 7.64984 9.14C8.42984 8 8.94984 7.22 8.94984 5.86C8.94984 3.69 7.30984 3 6.43984 3C5.11984 3 3.96984 4 3.71984 4.25C3.35984 4.61 3.05984 4.91 2.83984 5.18L4.58984 6.89ZM13.8798 18.55C13.5698 18.55 13.1398 18.29 13.1398 17.83C13.1398 17.23 13.8698 15.63 16.0098 15.07C15.7098 17.76 14.5798 18.55 13.8798 18.55Z"/>
</svg>