<svg width="24" height="24" viewBox="0 0 24 24" xmlns="http://www.w3.org/2000/svg">
<path d="M20 14C21.1046 14 22 13.1046 22 12C22 10.8954 21.1046 10 20 10C18.8954 10 18 10.8954 18 12C18 13.1046 18.8954 14 20 14Z"/>
<path d="M4 14C5.10457 14 6 13.1046 6 12C6 10.8954 5.10457 10 4 10C2.89543 10 2 10.8954 2 12C2 13.1046 2.89543 14 4 14Z"/>
<path d="M12 22C13.1046 22 14 21.1046 14 20C14 18.8954 13.1046 18 12 18C10.8954 18 10 18.8954 10 20C10 21.1046 10.8954 22 12 22Z"/>
<path d="M10.0502 8.5901L6.03023 4.5501H6.02023L5.71023 4.2301L4.29023 5.6401L8.31024 9.6901L8.32023 9.6801L8.63023 10.0001L10.0502 8.5901ZM13.9432 8.6171L18.3482 4.2251L19.7602 5.6401L15.3552 10.0331L13.9432 8.6171ZM10.0102 15.3601L8.59023 13.9501L4.56023 17.9601L4.24023 18.2901L5.65023 19.7001L9.68023 15.6801L10.0102 15.3601ZM19.7602 18.3001L15.7702 14.2901L15.4102 13.9401L14.0002 15.3501L17.9902 19.3601L18.3402 19.7101L19.7602 18.3001Z"/>
<path d="M12 6C13.1046 6 14 5.10457 14 4C14 2.89543 13.1046 2 12 2C10.8954 2 10 2.89543 10 4C10 5.10457 10.8954 6 12 6Z"/>
</svg>