<svg width="24" height="24" viewBox="0 0 24 24" fill="currentColor" xmlns="http://www.w3.org/2000/svg">
<path d="M18.6998 12.4001C18.4198 12.2401 18.1298 12.1101 17.8398 12.0001C18.1298 11.8901 18.4198 11.7601 18.6998 11.6001C20.6198 10.4901 21.6898 8.48006 21.6998 6.41006C19.9098 5.38006 17.6298 5.30006 15.6998 6.41006C15.4198 6.57006 15.1598 6.76006 14.9198 6.95006C14.9698 6.64006 14.9998 6.32006 14.9998 6.00006C14.9998 3.78006 13.7898 1.85006 11.9998 0.810059C10.2098 1.85006 8.9998 3.78006 8.9998 6.00006C8.9998 6.32006 9.0298 6.64006 9.0798 6.95006C8.8398 6.75006 8.5798 6.56006 8.2998 6.40006C6.3798 5.29006 4.0998 5.37006 2.2998 6.40006C2.2998 8.47006 3.3698 10.4801 5.2998 11.5901C5.5798 11.7501 5.8698 11.8801 6.1598 11.9901C5.8698 12.1001 5.5798 12.2301 5.2998 12.3901C3.3798 13.5001 2.3098 15.5101 2.2998 17.5801C4.0898 18.6101 6.3698 18.6901 8.2998 17.5801C8.5798 17.4201 8.8398 17.2301 9.0798 17.0401C9.0298 17.3601 8.9998 17.6801 8.9998 18.0001C8.9998 20.2201 10.2098 22.1501 11.9998 23.1901C13.7898 22.1501 14.9998 20.2201 14.9998 18.0001C14.9998 17.6801 14.9698 17.3601 14.9198 17.0501C15.1598 17.2501 15.4198 17.4301 15.6998 17.5901C17.6198 18.7001 19.8998 18.6201 21.6998 17.5901C21.6898 15.5201 20.6198 13.5101 18.6998 12.4001ZM11.9998 16.0001C9.7898 16.0001 7.9998 14.2101 7.9998 12.0001C7.9998 9.79006 9.7898 8.00006 11.9998 8.00006C14.2098 8.00006 15.9998 9.79006 15.9998 12.0001C15.9998 14.2101 14.2098 16.0001 11.9998 16.0001Z"/>
</svg>