<svg width="24" height="24" viewBox="0 0 24 24" fill="none" xmlns="http://www.w3.org/2000/svg">
<g clip-path="url(#clip0_20_17288)">
<path d="M21.1901 21.19L2.81014 2.81L1.39014 4.22L5.17014 8H4.00014L5.00014 18H6.00014C6.00014 20.21 7.79014 22 10.0001 22C12.2101 22 14.0001 20.21 14.0001 18V16.83L19.7801 22.61L21.1901 21.19ZM12.0001 18C12.0001 19.1 11.1001 20 10.0001 20C8.90014 20 8.00014 19.1 8.00014 18H9.00014L9.56014 12.39L12.0001 14.83V18ZM14.0001 6V11.17L12.0001 9.17V6C12.0001 3.79 13.7901 2 16.0001 2C18.2101 2 20.0001 3.79 20.0001 6V17.17L18.0001 15.17V6C18.0001 4.9 17.1001 4 16.0001 4C14.9001 4 14.0001 4.9 14.0001 6ZM10.0001 5C10.0001 5.62 9.80014 6.18 9.48014 6.66L5.33014 2.51C5.81014 2.19 6.38014 2 7.00014 2C8.66014 2 10.0001 3.34 10.0001 5Z" fill="#FCFCFD"/>
</g>
<defs>
<clipPath id="clip0_20_17288">
<rect width="24" height="24" fill="white"/>
</clipPath>
</defs>
</svg>
