<svg width="24" height="24" viewBox="0 0 24 24" fill="currentColor" xmlns="http://www.w3.org/2000/svg">
<path d="M20.8401 20.84L3.16014 3.16L1.89014 4.43L3.78014 6.32C2.66014 7.93 2.00014 9.89 2.00014 12C2.00014 17.52 6.48014 22 12.0001 22C14.1101 22 16.0701 21.34 17.6801 20.23L19.5701 22.12L20.8401 20.84ZM12.0001 20C7.59014 20 4.00014 16.41 4.00014 12C4.00014 10.45 4.45014 9 5.22014 7.77L6.68014 9.23C6.25014 10.06 6.00014 11 6.00014 12C6.00014 15.31 8.69014 18 12.0001 18C13.0001 18 13.9401 17.75 14.7701 17.32L16.2301 18.78C15.0001 19.55 13.5501 20 12.0001 20ZM6.32014 3.77C7.93014 2.66 9.89014 2 12.0001 2C17.5201 2 22.0001 6.48 22.0001 12C22.0001 14.11 21.3401 16.07 20.2301 17.68L18.7801 16.23C19.5501 15 20.0001 13.55 20.0001 12C20.0001 7.59 16.4101 4 12.0001 4C10.4501 4 9.00014 4.45 7.77014 5.22L6.32014 3.77ZM18.0001 12C18.0001 13 17.7501 13.94 17.3201 14.77L9.23014 6.68C10.0601 6.25 11.0001 6 12.0001 6C15.3101 6 18.0001 8.69 18.0001 12Z"/>
</svg>