<svg width="24" height="24" viewBox="0 0 24 24" xmlns="http://www.w3.org/2000/svg">
<path d="M19.9302 21.12C18.8302 18.18 18.2902 15.09 18.2902 12C18.2902 8.91 18.8402 5.82 19.9302 2.88C19.9802 2.77 20.0002 2.66 20.0002 2.57C20.0002 2.23 19.7602 2 19.3602 2H4.62023C4.22023 2 3.99023 2.23 3.99023 2.57C3.99023 2.67 4.01023 2.77 4.05023 2.88C5.16023 5.82 5.70023 8.91 5.70023 12C5.70023 15.09 5.15023 18.18 4.06023 21.12C4.01023 21.23 3.99023 21.34 3.99023 21.43C3.99023 21.76 4.22023 22 4.62023 22H19.3702C19.7602 22 20.0002 21.76 20.0002 21.43C20.0002 21.33 19.9802 21.23 19.9302 21.12Z"/>
</svg>