<svg width="24" height="24" viewBox="0 0 24 24" xmlns="http://www.w3.org/2000/svg">
<path d="M7.10982 8.53L5.69982 7.11C4.79982 8.27 4.23982 9.61 4.06982 11H6.08982C6.22982 10.13 6.57982 9.28 7.10982 8.53ZM6.08982 13H4.06982C4.23982 14.39 4.78982 15.73 5.68982 16.89L7.09982 15.47C6.57982 14.72 6.22982 13.88 6.08982 13ZM7.09982 18.32C8.25982 19.22 9.60982 19.76 10.9998 19.93V17.9C10.1298 17.75 9.28982 17.41 8.53982 16.87L7.09982 18.32ZM12.9998 4.07V1L8.44982 5.55L12.9998 10V6.09C15.8398 6.57 17.9998 9.03 17.9998 12C17.9998 14.97 15.8398 17.43 12.9998 17.91V19.93C16.9498 19.44 19.9998 16.08 19.9998 12C19.9998 7.92 16.9498 4.56 12.9998 4.07Z"/>
</svg>