<svg width="24" height="24" viewBox="0 0 24 24" fill="none" xmlns="http://www.w3.org/2000/svg">
<g clip-path="url(#clip0_20_17420)">
<path d="M7.33986 6.41001L0.859863 12.9L7.34986 19.38L13.8399 12.9L7.33986 6.41001ZM3.68986 12.9L7.34986 9.24001L10.9999 12.9L7.33986 16.56L3.68986 12.9ZM19.3599 6.64001C17.6099 4.88001 15.2999 4.00001 12.9999 4.00001V0.76001L8.75986 5.00001L12.9999 9.24001V6.00001C14.7899 6.00001 16.5799 6.68001 17.9499 8.05001C20.6799 10.78 20.6799 15.22 17.9499 17.95C16.5799 19.32 14.7899 20 12.9999 20C12.0299 20 11.0599 19.79 10.1599 19.39L8.66986 20.88C10.0199 21.62 11.5099 22 12.9999 22C15.2999 22 17.6099 21.12 19.3599 19.36C22.8799 15.85 22.8799 10.15 19.3599 6.64001Z" fill="#FCFCFD"/>
</g>
<defs>
<clipPath id="clip0_20_17420">
<rect width="24" height="24" fill="white"/>
</clipPath>
</defs>
</svg>
