<svg width="24" height="24" viewBox="0 0 24 24" xmlns="http://www.w3.org/2000/svg">
<path d="M4.9998 14.5H18.9998V8.50005H4.9998V14.5ZM10.9998 0.550049V3.50005H12.9998V0.550049H10.9998ZM19.0398 3.05005L17.2498 4.84005L18.6598 6.25005L20.4598 4.46005L19.0398 3.05005ZM12.9998 22.4501V19.5H10.9998V22.4501H12.9998ZM20.4498 18.5401L18.6498 16.75L17.2398 18.16L19.0298 19.96L20.4498 18.5401ZM3.5498 4.46005L5.3398 6.25005L6.7498 4.84005L4.9598 3.05005L3.5498 4.46005ZM4.9598 19.9501L6.7498 18.15L5.3398 16.74L3.5498 18.5301L4.9598 19.9501Z"/>
</svg>