<svg width="24" height="24" viewBox="0 0 24 24" xmlns="http://www.w3.org/2000/svg">
<path d="M12.9996 10.0001C12.9996 9.45006 13.4496 9.00006 13.9996 9.00006H16.9996C17.5496 9.00006 17.9996 9.45006 17.9996 10.0001V11.0001H16.4996V10.5001H14.4996V11.5001L12.9996 10.0001ZM16.4996 13.5001L17.7096 14.7101C17.8896 14.5201 17.9996 14.2701 17.9996 14.0001V13.0001H16.4996V13.5001ZM8.82965 6.00006H18.9996V16.1701L20.9796 18.1501C20.9796 18.1001 20.9996 18.0501 20.9996 17.9901V6.00006C20.9996 4.90006 20.0996 4.00006 18.9996 4.00006H6.82965L8.82965 6.00006ZM19.7796 22.6101L17.1696 20.0001H4.99965C3.88965 20.0001 2.99965 19.1001 2.99965 18.0001V6.00006C2.99965 5.95006 3.01965 5.90006 3.01965 5.85006L1.38965 4.22006L2.79965 2.81006L21.1796 21.1901L19.7796 22.6101ZM7.49965 13.5001H9.49965V13.0001H10.1696L7.66965 10.5001H7.49965V13.5001ZM15.1696 18.0001L10.9996 13.8301V14.0001C10.9996 14.5501 10.5496 15.0001 9.99965 15.0001H6.99965C6.44965 15.0001 5.99965 14.5501 5.99965 14.0001V10.0001C5.99965 9.68006 6.15965 9.41006 6.39965 9.22006L4.99965 7.83006V18.0001H15.1696Z"/>
</svg>