<svg width="24" height="24" viewBox="0 0 24 24" fill="none" xmlns="http://www.w3.org/2000/svg">
<g clip-path="url(#clip0_19_21602)">
<path d="M17.9502 13C17.9502 16.31 15.2602 19 11.9502 19C8.6402 19 5.9502 16.31 5.9502 13C5.9502 9.69 8.6402 7 11.9502 7V11L16.9502 6L11.9502 1V5C7.5302 5 3.9502 8.58 3.9502 13C3.9502 17.42 7.5302 21 11.9502 21C16.3702 21 19.9502 17.42 19.9502 13H17.9502ZM12.4302 15.15C12.3802 15.22 12.3202 15.28 12.2502 15.32C12.1802 15.36 12.0802 15.38 11.9802 15.38C11.8102 15.38 11.6702 15.33 11.5602 15.23C11.4502 15.13 11.3902 14.99 11.3702 14.82H10.5302C10.5402 15.02 10.5802 15.19 10.6602 15.35C10.7402 15.51 10.8502 15.63 10.9802 15.74C11.1102 15.85 11.2702 15.93 11.4402 15.98C11.6102 16.03 11.7902 16.06 11.9702 16.06C12.2102 16.06 12.4302 16.02 12.6102 15.94C12.7902 15.86 12.9402 15.76 13.0602 15.63C13.1802 15.5 13.2702 15.35 13.3302 15.18C13.3902 15.01 13.4202 14.83 13.4202 14.64C13.4202 14.42 13.3902 14.21 13.3302 14.04C13.2702 13.87 13.1902 13.71 13.0802 13.59C12.9702 13.47 12.8302 13.37 12.6702 13.31C12.5102 13.25 12.3302 13.21 12.1202 13.21C12.0502 13.21 11.9802 13.22 11.9202 13.23C11.8602 13.24 11.7902 13.25 11.7402 13.27C11.6902 13.29 11.6402 13.3 11.5902 13.32C11.5402 13.34 11.5102 13.36 11.4802 13.37L11.5902 12.45H13.2902V11.74H10.9002L10.6502 13.91L11.3202 14.08C11.3502 14.05 11.3802 14.02 11.4202 13.99C11.4602 13.96 11.4902 13.94 11.5402 13.92C11.5902 13.9 11.6402 13.88 11.6902 13.87C11.7402 13.86 11.8202 13.85 11.8902 13.85C12.0102 13.85 12.1102 13.87 12.1902 13.9C12.2702 13.93 12.3502 13.99 12.4002 14.05C12.4502 14.11 12.5002 14.19 12.5302 14.29C12.5602 14.39 12.5702 14.48 12.5702 14.6C12.5702 14.72 12.5602 14.82 12.5402 14.91C12.5202 15 12.4802 15.08 12.4302 15.15Z" fill="#FCFCFD"/>
</g>
<defs>
<clipPath id="clip0_19_21602">
<rect width="24" height="24" fill="white"/>
</clipPath>
</defs>
</svg>
