<svg width="24" height="24" viewBox="0 0 24 24" xmlns="http://www.w3.org/2000/svg">
<path d="M18 13C18 16.31 15.31 19 12 19C8.69 19 6 16.31 6 13C6 9.69 8.69 7 12 7V11L17 6L12 1V5C7.58 5 4 8.58 4 13C4 17.42 7.58 21 12 21C16.42 21 20 17.42 20 13H18Z"/>
<path d="M10.9 16V11.73H10.81L9.04004 12.36V13.05L10.05 12.74V16H10.9Z"/>
<path d="M14.3198 11.7802C14.1398 11.7102 13.9498 11.6802 13.7298 11.6802C13.5098 11.6802 13.3198 11.7102 13.1398 11.7802C12.9598 11.8502 12.8098 11.9602 12.6898 12.1102C12.5698 12.2602 12.4598 12.4502 12.3998 12.6802C12.3398 12.9102 12.2998 13.1802 12.2998 13.5002V14.2402C12.2998 14.5602 12.3398 14.8402 12.4098 15.0602C12.4798 15.2802 12.5798 15.4802 12.7098 15.6302C12.8398 15.7802 12.9898 15.8902 13.1698 15.9602C13.3498 16.0302 13.5398 16.0602 13.7598 16.0602C13.9798 16.0602 14.1698 16.0302 14.3498 15.9602C14.5298 15.8902 14.6798 15.7802 14.7998 15.6302C14.9198 15.4802 15.0198 15.2902 15.0898 15.0602C15.1598 14.8302 15.1898 14.5602 15.1898 14.2402V13.5002C15.1898 13.1802 15.1498 12.9002 15.0798 12.6802C15.0098 12.4602 14.9098 12.2602 14.7798 12.1102C14.6498 11.9602 14.4898 11.8502 14.3198 11.7802ZM14.3298 14.3502C14.3298 14.5402 14.3198 14.7002 14.2898 14.8302C14.2598 14.9602 14.2298 15.0702 14.1798 15.1502C14.1298 15.2302 14.0698 15.2902 13.9898 15.3202C13.9098 15.3502 13.8298 15.3702 13.7398 15.3702C13.6498 15.3702 13.5598 15.3502 13.4898 15.3202C13.4198 15.2902 13.3498 15.2302 13.2998 15.1502C13.2498 15.0702 13.2098 14.9602 13.1798 14.8302C13.1498 14.7002 13.1398 14.5402 13.1398 14.3502V13.3802C13.1398 13.1902 13.1498 13.0302 13.1798 12.9002C13.2098 12.7702 13.2398 12.6702 13.2998 12.5902C13.3598 12.5102 13.4098 12.4502 13.4898 12.4202C13.5698 12.3902 13.6498 12.3702 13.7398 12.3702C13.8298 12.3702 13.9198 12.3902 13.9898 12.4202C14.0598 12.4502 14.1298 12.5102 14.1798 12.5902C14.2298 12.6702 14.2698 12.7702 14.2998 12.9002C14.3298 13.0302 14.3398 13.1902 14.3398 13.3802V14.3502H14.3298Z"/>
</svg>