<svg width="24" height="24" viewBox="0 0 24 24" fill="none" xmlns="http://www.w3.org/2000/svg">
<g clip-path="url(#clip0_19_21614)">
<path d="M6.02965 3.20021C7.14965 2.44021 8.50965 2.00021 9.99965 2.00021C13.9296 2.00021 16.9996 5.07021 16.9996 9.00021C16.9996 10.2602 16.6196 11.6502 15.9296 12.9002C15.9096 12.9402 15.8796 12.9802 15.8496 13.0302L14.3696 11.5502C14.7696 10.6902 14.9996 9.80021 14.9996 9.00021C14.9996 6.20021 12.7996 4.00021 9.99965 4.00021C9.07965 4.00021 8.23965 4.26021 7.49965 4.67021L6.02965 3.20021ZM17.2096 14.3802L18.6396 15.8102C20.1096 13.9302 20.9996 11.5702 20.9996 9.00021C20.9996 5.96021 19.7696 3.21021 17.7796 1.22021L16.3596 2.64021C17.9896 4.26021 18.9996 6.51021 18.9996 9.00021C18.9996 11.0202 18.3296 12.8802 17.2096 14.3802ZM9.99965 6.50021C9.78965 6.50021 9.59965 6.53021 9.40965 6.58021L12.4196 9.59021C12.4696 9.40022 12.4996 9.21021 12.4996 9.00021C12.4996 7.62021 11.3796 6.50021 9.99965 6.50021ZM21.1896 21.1902L2.80965 2.81021L1.38965 4.22021L3.51965 6.35021C3.18965 7.16021 2.99965 8.05021 2.99965 9.00021H4.99965C4.99965 8.64021 5.04965 8.29021 5.11965 7.95021L11.7296 14.5602C10.8496 15.2402 9.94965 15.9702 9.45965 17.4602C8.95965 18.9602 8.45965 19.4702 7.74965 19.8402C7.55965 19.9402 7.28965 20.0002 6.99965 20.0002C5.89965 20.0002 4.99965 19.1002 4.99965 18.0002H2.99965C2.99965 20.2102 4.78965 22.0002 6.99965 22.0002C7.56965 22.0002 8.12965 21.8802 8.63965 21.6502C9.99965 20.9402 10.7696 19.9202 11.3696 18.1002C11.6896 17.1202 12.2696 16.6702 13.0796 16.0502C13.1096 16.0302 13.1296 16.0102 13.1596 15.9902L19.7796 22.6102L21.1896 21.1902Z" fill="#FCFCFD"/>
</g>
<defs>
<clipPath id="clip0_19_21614">
<rect width="24" height="24" fill="white"/>
</clipPath>
</defs>
</svg>
