<svg width="24" height="24" viewBox="0 0 24 24" xmlns="http://www.w3.org/2000/svg">
<path d="M11.9902 5V1L6.99023 6L11.9902 11V7C15.3002 7 17.9902 9.69 17.9902 13C17.9902 16.31 15.3002 19 11.9902 19C8.68023 19 5.99023 16.31 5.99023 13H3.99023C3.99023 17.42 7.57023 21 11.9902 21C16.4102 21 19.9902 17.42 19.9902 13C19.9902 8.58 16.4102 5 11.9902 5ZM10.8902 16H10.0402V12.74L9.03023 13.05V12.36L10.8002 11.73H10.8902V16ZM15.1702 14.24C15.1702 14.56 15.1402 14.84 15.0702 15.06C15.0002 15.28 14.9002 15.48 14.7802 15.63C14.6602 15.78 14.5002 15.89 14.3302 15.96C14.1602 16.03 13.9602 16.06 13.7402 16.06C13.5202 16.06 13.3302 16.03 13.1502 15.96C12.9702 15.89 12.8202 15.78 12.6902 15.63C12.5602 15.48 12.4602 15.29 12.3902 15.06C12.3202 14.83 12.2802 14.56 12.2802 14.24V13.5C12.2802 13.18 12.3102 12.9 12.3802 12.68C12.4502 12.46 12.5502 12.26 12.6702 12.11C12.7902 11.96 12.9502 11.85 13.1202 11.78C13.2902 11.71 13.4902 11.68 13.7102 11.68C13.9302 11.68 14.1202 11.71 14.3002 11.78C14.4802 11.85 14.6302 11.96 14.7602 12.11C14.8902 12.26 14.9902 12.45 15.0602 12.68C15.1302 12.91 15.1702 13.18 15.1702 13.5V14.24ZM14.3202 13.38C14.3202 13.19 14.3102 13.03 14.2802 12.9C14.2502 12.77 14.2102 12.67 14.1602 12.59C14.1102 12.51 14.0502 12.45 13.9702 12.42C13.8902 12.39 13.8102 12.37 13.7202 12.37C13.6302 12.37 13.5402 12.39 13.4702 12.42C13.4002 12.45 13.3302 12.51 13.2802 12.59C13.2302 12.67 13.1902 12.77 13.1602 12.9C13.1302 13.03 13.1202 13.19 13.1202 13.38V14.35C13.1202 14.54 13.1302 14.7 13.1602 14.83C13.1902 14.96 13.2302 15.07 13.2802 15.15C13.3302 15.23 13.3902 15.29 13.4702 15.32C13.5502 15.35 13.6302 15.37 13.7202 15.37C13.8102 15.37 13.9002 15.35 13.9702 15.32C14.0402 15.29 14.1102 15.23 14.1602 15.15C14.2102 15.07 14.2502 14.96 14.2702 14.83C14.2902 14.7 14.3102 14.54 14.3102 14.35V13.38H14.3202Z"/>
</svg>