<svg width="24" height="24" viewBox="0 0 24 24" xmlns="http://www.w3.org/2000/svg">
<path d="M13.0498 9.7898L9.9998 7.4998V16.4998L13.0498 14.2098L15.9998 11.9998L13.0498 9.7898ZM13.0498 9.7898L9.9998 7.4998V16.4998L13.0498 14.2098L15.9998 11.9998L13.0498 9.7898ZM13.0498 9.7898L9.9998 7.4998V16.4998L13.0498 14.2098L15.9998 11.9998L13.0498 9.7898ZM10.9998 4.0698V2.0498C8.9898 2.2498 7.1598 3.0498 5.6798 4.2598L7.0998 5.6898C8.20981 4.8298 9.5398 4.2498 10.9998 4.0698ZM5.6898 7.0998L4.2598 5.6798C3.0498 7.1598 2.2498 8.9898 2.0498 10.9998H4.0698C4.2498 9.5398 4.8298 8.20981 5.6898 7.0998ZM4.0698 12.9998H2.0498C2.2498 15.0098 3.0498 16.8398 4.2598 18.3198L5.6898 16.8898C4.8298 15.7898 4.2498 14.4598 4.0698 12.9998ZM5.6798 19.7398C7.1598 20.9498 8.9998 21.7498 10.9998 21.9498V19.9298C9.5398 19.7498 8.20981 19.1698 7.0998 18.3098L5.6798 19.7398ZM21.9998 11.9998C21.9998 17.1598 18.0798 21.4198 13.0498 21.9498V19.9298C16.9698 19.4098 19.9998 16.0498 19.9998 11.9998C19.9998 7.9498 16.9698 4.5898 13.0498 4.0698V2.0498C18.0798 2.5798 21.9998 6.8398 21.9998 11.9998Z"/>
</svg>