<svg width="24" height="24" viewBox="0 0 24 24" fill="currentColor" xmlns="http://www.w3.org/2000/svg">
<path d="M8.99966 11.0001H12.6297L8.99966 15.2001V17.0001H14.9997V15.0001H11.3697L14.9997 10.8001V9.00006H8.99966V11.0001ZM16.0557 3.34606L17.3377 1.81106L21.9447 5.66106L20.6647 7.20106L16.0557 3.34606ZM3.33566 7.19006L2.05566 5.65406L6.66166 1.81006L7.94166 3.34606L3.33566 7.19006ZM11.9997 6.00006C15.8597 6.00006 18.9997 9.14006 18.9997 13.0001C18.9997 16.8601 15.8597 20.0001 11.9997 20.0001C8.13966 20.0001 4.99966 16.8601 4.99966 13.0001C4.99966 9.14006 8.13966 6.00006 11.9997 6.00006ZM11.9997 4.00006C7.02966 4.00006 2.99966 8.03006 2.99966 13.0001C2.99966 17.9701 7.02966 22.0001 11.9997 22.0001C16.9697 22.0001 20.9997 17.9701 20.9997 13.0001C20.9997 8.03006 16.9697 4.00006 11.9997 4.00006Z"/>
</svg>