<svg width="24" height="24" viewBox="0 0 24 24" xmlns="http://www.w3.org/2000/svg">
<path d="M20.3802 8.57012L19.1502 10.4201C19.7433 11.6032 20.0337 12.915 19.9954 14.2378C19.957 15.5607 19.591 16.8534 18.9302 18.0001H5.07017C4.21134 16.5102 3.85547 14.7832 4.05531 13.0752C4.25516 11.3671 5.00008 9.76895 6.17965 8.51755C7.35922 7.26615 8.91064 6.42816 10.6039 6.12782C12.2972 5.82747 14.0422 6.08076 15.5802 6.85012L17.4302 5.62012C15.5467 4.41234 13.3125 3.87113 11.0851 4.08306C8.85763 4.29499 6.76562 5.24782 5.14367 6.78913C3.52171 8.33045 2.46353 10.3712 2.13839 12.5849C1.81325 14.7987 2.23992 17.0575 3.35017 19.0001C3.52468 19.3024 3.77526 19.5537 4.077 19.7292C4.37875 19.9046 4.72115 19.998 5.07017 20.0001H18.9202C19.2726 20.0015 19.6191 19.9098 19.9247 19.7342C20.2302 19.5586 20.484 19.3053 20.6602 19.0001C21.5815 17.404 22.0439 15.5844 21.9963 13.7421C21.9486 11.8998 21.3928 10.1064 20.3902 8.56012L20.3802 8.57012Z"/>
<path d="M10.5905 15.4099C10.7762 15.5959 10.9968 15.7434 11.2396 15.844C11.4824 15.9447 11.7426 15.9965 12.0055 15.9965C12.2683 15.9965 12.5286 15.9447 12.7714 15.844C13.0142 15.7434 13.2347 15.5959 13.4205 15.4099L19.0805 6.91992L10.5905 12.5799C10.4045 12.7657 10.257 12.9862 10.1564 13.229C10.0557 13.4718 10.0039 13.7321 10.0039 13.9949C10.0039 14.2578 10.0557 14.518 10.1564 14.7608C10.257 15.0036 10.4045 15.2242 10.5905 15.4099Z"/>
</svg>