<svg width="24" height="24" viewBox="0 0 24 24" fill="currentColor" xmlns="http://www.w3.org/2000/svg">
<path d="M4.33969 2.93018L2.92969 4.34018L7.28969 8.70018L6.99969 9.00018H2.99969V15.0002H6.99969L11.9997 20.0002V13.4102L16.1797 17.5902C15.5297 18.0802 14.7997 18.4702 13.9997 18.7002V20.7602C15.3397 20.4602 16.5697 19.8402 17.6097 19.0102L19.6597 21.0602L21.0697 19.6502L4.33969 2.93018ZM9.99969 15.1702L7.82969 13.0002H4.99969V11.0002H7.82969L8.70969 10.1202L9.99969 11.4102V15.1702ZM18.9997 12.0002C18.9997 12.8202 18.8497 13.6102 18.5897 14.3402L20.1197 15.8702C20.6797 14.7002 20.9997 13.3902 20.9997 12.0002C20.9997 7.72018 18.0097 4.14018 13.9997 3.23018V5.29018C16.8897 6.15018 18.9997 8.83018 18.9997 12.0002ZM11.9997 4.00018L10.1197 5.88018L11.9997 7.76018V4.00018ZM16.4997 12.0002C16.4997 10.2302 15.4797 8.71018 13.9997 7.97018V9.76018L16.4797 12.2402C16.4897 12.1602 16.4997 12.0802 16.4997 12.0002Z"/>
</svg>