<svg width="24" height="24" viewBox="0 0 24 24" fill="none" xmlns="http://www.w3.org/2000/svg">
<g clip-path="url(#clip0_20_19633)">
<path d="M9.41 6.58012L12 4.00012L20 12.0001L17.42 14.5901L18.83 16.0001L21.41 13.4101C22.19 12.6301 22.19 11.3601 21.41 10.5801L13.41 2.58012C12.63 1.80012 11.36 1.80012 10.58 2.58012L8 5.17012L9.41 6.58012Z" fill="#FCFCFD"/>
<path d="M2.81014 2.81006L1.39014 4.22006L5.17014 8.00006L2.59014 10.5901C1.81014 11.3701 1.81014 12.6401 2.59014 13.4201L10.5901 21.4201C11.3701 22.2001 12.6401 22.2001 13.4201 21.4201L16.0001 18.8301L19.7801 22.6101L21.1901 21.2001L2.81014 2.81006ZM12.0001 20.0001L4.00014 12.0001L6.58014 9.41006L8.17014 11.0001H7.00014V13.0001H10.1701L11.6701 14.5001L10.5901 15.5901L12.0001 17.0001L13.0901 15.9101L14.5901 17.4101L12.0001 20.0001Z" fill="#FCFCFD"/>
<path d="M12.0054 6.99847L10.9165 8.0874L15.9157 13.0866L17.0046 11.9977L12.0054 6.99847Z" fill="#FCFCFD"/>
</g>
<defs>
<clipPath id="clip0_20_19633">
<rect width="24" height="24" fill="white"/>
</clipPath>
</defs>
</svg>
