<svg width="24" height="24" viewBox="0 0 24 24" fill="none" xmlns="http://www.w3.org/2000/svg">
<g clip-path="url(#clip0_19_22406)">
<path d="M10.4996 7.67V3.5C10.4996 2.67 11.1696 2 11.9996 2C12.8296 2 13.4996 2.67 13.4996 3.5V9L21.9996 14V16L17.5096 14.68L10.4996 7.67ZM19.7796 22.61L21.1896 21.2L13.4996 13.5L9.55965 9.56L2.80965 2.81L1.38965 4.22L7.76965 10.6L1.99965 14V16L10.4996 13.5V19L7.99965 20.5V22L11.9996 21L15.9996 22V20.5L13.4996 19V16.33L19.7796 22.61Z" fill="#FCFCFD"/>
</g>
<defs>
<clipPath id="clip0_19_22406">
<rect width="24" height="24" fill="white"/>
</clipPath>
</defs>
</svg>
