<svg width="24" height="24" viewBox="0 0 24 24" xmlns="http://www.w3.org/2000/svg">
<path d="M11.0004 6.99994L7.80043 15.9999H9.70043L10.4004 13.9999H13.6004L14.3004 15.9999H16.2004L13.0004 6.99994H11.0004ZM10.8504 12.6499L12.0004 8.99994L13.1504 12.6499H10.8504ZM20.0004 8.68994V3.99994H15.3104L12.0004 0.689941L8.69043 3.99994H4.00043V8.68994L0.69043 11.9999L4.00043 15.3099V19.9999H8.69043L12.0004 23.3099L15.3104 19.9999H20.0004V15.3099L23.3104 11.9999L20.0004 8.68994ZM18.0004 14.4799V17.9999H14.4804L12.0004 20.4799L9.52043 17.9999H6.00043V14.4799L3.52043 11.9999L6.00043 9.51994V5.99994H9.52043L12.0004 3.51994L14.4804 5.99994H18.0004V9.51994L20.4804 11.9999L18.0004 14.4799Z"/>
</svg>