<svg width="24" height="24" viewBox="0 0 24 24" fill="none" xmlns="http://www.w3.org/2000/svg">
<g clip-path="url(#clip0_19_22440)">
<path d="M20.0004 8.68994V3.99994H15.3104L12.0004 0.689941L8.69043 3.99994H4.00043V8.68994L0.69043 11.9999L4.00043 15.3099V19.9999H8.69043L12.0004 23.3099L15.3104 19.9999H20.0004V15.3099L23.3104 11.9999L20.0004 8.68994ZM18.0004 14.4799V17.9999H14.4804L12.0004 20.4799L9.52043 17.9999H6.00043V14.4799L3.52043 11.9999L6.00043 9.51994V5.99994H9.52043L12.0004 3.51994L14.4804 5.99994H18.0004V9.51994L20.4804 11.9999L18.0004 14.4799ZM12.0004 5.99994C8.69043 5.99994 6.00043 8.68994 6.00043 11.9999C6.00043 15.3099 8.69043 17.9999 12.0004 17.9999C15.3104 17.9999 18.0004 15.3099 18.0004 11.9999C18.0004 8.68994 15.3104 5.99994 12.0004 5.99994ZM12.0004 15.9999C9.79043 15.9999 8.00043 14.2099 8.00043 11.9999C8.00043 9.78994 9.79043 7.99994 12.0004 7.99994C14.2104 7.99994 16.0004 9.78994 16.0004 11.9999C16.0004 14.2099 14.2104 15.9999 12.0004 15.9999Z" fill="#FCFCFD"/>
<path d="M12 14.5C13.3807 14.5 14.5 13.3807 14.5 12C14.5 10.6193 13.3807 9.5 12 9.5C10.6193 9.5 9.5 10.6193 9.5 12C9.5 13.3807 10.6193 14.5 12 14.5Z" fill="#FCFCFD"/>
</g>
<defs>
<clipPath id="clip0_19_22440">
<rect width="24" height="24" fill="white"/>
</clipPath>
</defs>
</svg>
