<svg width="24" height="24" viewBox="0 0 24 24" fill="none" xmlns="http://www.w3.org/2000/svg">
<g clip-path="url(#clip0_19_22495)">
<path d="M22.2998 13.77L19.7298 11.2L18.3198 12.61L20.5398 14.83L14.8798 20.49L3.5598 9.17L9.2198 3.51L11.3198 5.61L12.7298 4.2L10.2798 1.75C9.6898 1.16 8.7398 1.16 8.1598 1.75L1.7998 8.11C1.2098 8.7 1.2098 9.65 1.7998 10.23L13.8198 22.25C14.4098 22.84 15.3598 22.84 15.9398 22.25L22.2998 15.89C22.8898 15.3 22.8898 14.35 22.2998 13.77ZM7.5198 21.48C4.2498 19.94 1.9098 16.76 1.5498 13H0.0498047C0.559805 19.16 5.7098 24 11.9998 24L12.6598 23.97L8.8498 20.15L7.5198 21.48ZM15.0498 10H20.0498C20.5998 10 21.0498 9.55 21.0498 9V5C21.0498 4.45 20.5998 4 20.0498 4V3.5C20.0498 2.12 18.9298 1 17.5498 1C16.1698 1 15.0498 2.12 15.0498 3.5V4C14.4998 4 14.0498 4.45 14.0498 5V9C14.0498 9.55 14.4998 10 15.0498 10ZM15.8498 3.5C15.8498 2.56 16.6098 1.8 17.5498 1.8C18.4898 1.8 19.2498 2.56 19.2498 3.5V4H15.8498V3.5Z" fill="#FCFCFD"/>
</g>
<defs>
<clipPath id="clip0_19_22495">
<rect width="24" height="24" fill="white"/>
</clipPath>
</defs>
</svg>
