<svg width="24" height="24" viewBox="0 0 24 24" fill="none" xmlns="http://www.w3.org/2000/svg">
<g clip-path="url(#clip0_19_22528)">
<path d="M20.5004 9.5C20.8604 9.5 21.2104 9.54 21.5504 9.61L23.6404 7C23.1903 6.66 18.7104 3 12.0004 3C5.28035 3 0.810352 6.66 0.360352 7L12.0004 21.5L15.5004 17.14V14.5C15.5004 11.7 17.7004 9.5 20.5004 9.5ZM23.0004 16V14.5C23.0004 13.1 21.9004 12 20.5004 12C19.1004 12 18.0004 13.1 18.0004 14.5V16C17.5004 16 17.0004 16.5 17.0004 17V21C17.0004 21.5 17.5004 22 18.0004 22H23.0004C23.5004 22 24.0004 21.5 24.0004 21V17C24.0004 16.5 23.5004 16 23.0004 16ZM22.0004 16H19.0004V14.5C19.0004 13.7 19.7004 13 20.5004 13C21.3004 13 22.0004 13.7 22.0004 14.5V16Z" fill="#FCFCFD"/>
</g>
<defs>
<clipPath id="clip0_19_22528">
<rect width="24" height="24" fill="white"/>
</clipPath>
</defs>
</svg>
