<svg width="24" height="24" viewBox="0 0 24 24" xmlns="http://www.w3.org/2000/svg">
<path d="M14.9998 7V11H15.9998V13H12.9998V5H14.9998L11.9998 1L8.9998 5H10.9998V13H7.9998V10.93C8.6998 10.56 9.1998 9.85 9.1998 9C9.1998 7.79 8.2098 6.8 6.9998 6.8C5.7898 6.8 4.7998 7.79 4.7998 9C4.7998 9.85 5.2998 10.56 5.9998 10.93V13C5.9998 14.11 6.8898 15 7.9998 15H10.9998V18.05C10.2898 18.42 9.7998 19.15 9.7998 20C9.7998 21.22 10.7898 22.2 11.9998 22.2C13.2098 22.2 14.1998 21.22 14.1998 20C14.1998 19.15 13.7098 18.42 12.9998 18.05V15H15.9998C17.1098 15 17.9998 14.11 17.9998 13V11H18.9998V7H14.9998Z"/>
</svg>