<svg width="24" height="24" viewBox="0 0 24 24" fill="none" xmlns="http://www.w3.org/2000/svg">
<g clip-path="url(#clip0_20_15110)">
<path d="M6.82965 4.00006H18.9996C20.0996 4.00006 20.9996 4.90006 20.9996 6.00006V18.0001C20.9996 18.0501 20.9896 18.1001 20.9796 18.1601L17.5996 14.7801C17.8396 14.5901 17.9996 14.3201 17.9996 14.0001V13.0001H16.4996V13.5001H16.3296L14.4996 11.6701V10.5001H16.4996V11.0001H17.9996V10.0001C17.9996 9.45006 17.5496 9.00006 16.9996 9.00006H13.9996C13.4496 9.00006 12.9996 9.45006 12.9996 10.0001V10.1701L6.82965 4.00006ZM19.7796 22.6101L17.1696 20.0001H4.99965C3.88965 20.0001 2.99965 19.1001 2.99965 18.0001V6.00006C2.99965 5.95006 3.01965 5.90006 3.01965 5.85006L1.38965 4.22006L2.79965 2.81006L21.1796 21.1901L19.7796 22.6101ZM10.9996 13.8301L10.1696 13.0001H9.49965V13.5001H7.49965V10.5001H7.66965L6.39965 9.22006C6.15965 9.41006 5.99965 9.68006 5.99965 10.0001V14.0001C5.99965 14.5501 6.44965 15.0001 6.99965 15.0001H9.99965C10.5496 15.0001 10.9996 14.5501 10.9996 14.0001V13.8301Z" fill="#FCFCFD"/>
</g>
<defs>
<clipPath id="clip0_20_15110">
<rect width="24" height="24" fill="white"/>
</clipPath>
</defs>
</svg>
