<svg width="24" height="24" viewBox="0 0 24 24" fill="currentColor" xmlns="http://www.w3.org/2000/svg">
<path d="M18 13C18 16.31 15.31 19 12 19C8.69 19 6 16.31 6 13C6 9.69 8.69 7 12 7V11L17 6L12 1V5C7.58 5 4 8.58 4 13C4 17.42 7.58 21 12 21C16.42 21 20 17.42 20 13H18Z"/>
<path d="M10.0598 15.3799C9.76984 15.3799 9.43984 15.2099 9.43984 14.8399H8.58984C8.58984 15.8099 9.48984 16.0699 10.0398 16.0699C10.9098 16.0699 11.5498 15.6099 11.5498 14.8199C11.5498 14.1599 11.0998 13.9199 10.8398 13.8199C10.9498 13.7699 11.4898 13.4999 11.4898 12.8999C11.4898 12.6899 11.4398 11.6799 10.0498 11.6799C9.42984 11.6799 8.64984 12.0299 8.64984 12.8399H9.49984C9.49984 12.4999 9.80984 12.3599 10.0698 12.3599C10.6598 12.3599 10.6498 12.8599 10.6498 12.8999C10.6498 13.4199 10.2398 13.4899 10.0198 13.4899H9.55984V14.1499H10.0098C10.6598 14.1499 10.7098 14.5699 10.7098 14.7899C10.7098 15.1099 10.4998 15.3799 10.0598 15.3799Z"/>
<path d="M13.8502 11.6801C13.7102 11.6801 12.4102 11.6001 12.4102 13.5001V14.2401C12.4102 16.1401 13.7202 16.0601 13.8502 16.0601C13.9902 16.0601 15.2902 16.1501 15.2902 14.2401V13.5001C15.3002 11.5901 13.9902 11.6801 13.8502 11.6801ZM14.4502 14.3501C14.4502 15.1201 14.2402 15.3801 13.8602 15.3801C13.4802 15.3801 13.2602 15.1201 13.2602 14.3501V13.3801C13.2602 12.6301 13.4802 12.3701 13.8502 12.3701C14.2302 12.3701 14.4502 12.6301 14.4502 13.3801V14.3501Z"/>
</svg>