<svg width="24" height="24" viewBox="0 0 24 24" fill="none" xmlns="http://www.w3.org/2000/svg">
<g clip-path="url(#clip0_20_15179)">
<path d="M18 13C18 16.31 15.31 19 12 19C8.69 19 6 16.31 6 13C6 9.69 8.69 7 12 7V11L17 6L12 1V5C7.58 5 4 8.58 4 13C4 17.42 7.58 21 12 21C16.42 21 20 17.42 20 13H18Z" fill="#FCFCFD"/>
<path d="M12.0298 15.38C11.5898 15.38 11.4498 15.07 11.4298 14.82H10.5898C10.6198 15.67 11.3798 16.07 12.0298 16.07C12.9598 16.07 13.4698 15.44 13.4698 14.64C13.4698 13.31 12.4998 13.2 12.1698 13.2C11.9698 13.2 11.7398 13.25 11.5298 13.36L11.6398 12.44H13.3398V11.73H10.9498L10.6998 13.9L11.3698 14.07C11.4998 13.94 11.6498 13.84 11.9398 13.84C12.3398 13.84 12.6298 14.07 12.6298 14.59C12.6198 14.64 12.6498 15.38 12.0298 15.38Z" fill="#FCFCFD"/>
</g>
<defs>
<clipPath id="clip0_20_15179">
<rect width="24" height="24" fill="white"/>
</clipPath>
</defs>
</svg>
