<svg width="24" height="24" viewBox="0 0 24 24" fill="none" xmlns="http://www.w3.org/2000/svg">
<g clip-path="url(#clip0_20_15163)">
<path d="M18 13C18 16.31 15.31 19 12 19C8.69 19 6 16.31 6 13C6 9.69 8.69 7 12 7V11L17 6L12 1V5C7.58 5 4 8.58 4 13C4 17.42 7.58 21 12 21C16.42 21 20 17.42 20 13H18Z" fill="#FCFCFD"/>
<path d="M10.86 15.9399V11.6699H10.77L9 12.2999V12.9899L10.01 12.6799V15.9399H10.86Z" fill="#FCFCFD"/>
<path d="M12.25 13.4401V14.1801C12.25 16.0801 13.56 16.0001 13.69 16.0001C13.83 16.0001 15.13 16.0901 15.13 14.1801V13.4401C15.13 11.5401 13.82 11.6201 13.69 11.6201C13.55 11.6201 12.25 11.5301 12.25 13.4401ZM14.29 13.3201V14.2901C14.29 15.0601 14.08 15.3201 13.7 15.3201C13.32 15.3201 13.1 15.0601 13.1 14.2901V13.3201C13.1 12.5701 13.32 12.3101 13.69 12.3101C14.07 12.3001 14.29 12.5701 14.29 13.3201Z" fill="#FCFCFD"/>
</g>
<defs>
<clipPath id="clip0_20_15163">
<rect width="24" height="24" fill="white"/>
</clipPath>
</defs>
</svg>
