<svg width="24" height="24" viewBox="0 0 24 24" fill="none" xmlns="http://www.w3.org/2000/svg">
<g clip-path="url(#clip0_20_15195)">
<path d="M6.02965 3.19997C7.14965 2.43997 8.50965 1.99997 9.99965 1.99997C13.9296 1.99997 16.9996 5.06997 16.9996 8.99997C16.9996 10.26 16.6196 11.65 15.9296 12.9C15.9096 12.94 15.8796 12.98 15.8496 13.03L14.3696 11.55C14.7696 10.69 14.9996 9.79997 14.9996 8.99997C14.9996 6.19997 12.7996 3.99997 9.99965 3.99997C9.07965 3.99997 8.23965 4.25997 7.49965 4.66997L6.02965 3.19997ZM17.2096 14.38L18.6396 15.81C20.1096 13.93 20.9996 11.57 20.9996 8.99997C20.9996 5.95997 19.7696 3.20997 17.7796 1.21997L16.3596 2.63997C17.9896 4.25997 18.9996 6.50997 18.9996 8.99997C18.9996 11.02 18.3296 12.88 17.2096 14.38ZM9.99965 6.49997C9.78965 6.49997 9.59965 6.52997 9.40965 6.57997L12.4196 9.58997C12.4696 9.39997 12.4996 9.20997 12.4996 8.99997C12.4996 7.61997 11.3796 6.49997 9.99965 6.49997ZM21.1896 21.19L2.80965 2.80997L1.38965 4.21997L3.51965 6.34997C3.18965 7.15997 2.99965 8.04997 2.99965 8.99997H4.99965C4.99965 8.63997 5.04965 8.28997 5.11965 7.94997L11.7296 14.56C10.8496 15.24 9.94965 15.97 9.45965 17.46C8.95965 18.96 8.45965 19.47 7.74965 19.84C7.55965 19.94 7.28965 20 6.99965 20C5.89965 20 4.99965 19.1 4.99965 18H2.99965C2.99965 20.21 4.78965 22 6.99965 22C7.56965 22 8.12965 21.88 8.63965 21.65C9.99965 20.94 10.7696 19.92 11.3696 18.1C11.6896 17.12 12.2696 16.67 13.0796 16.05C13.1096 16.03 13.1296 16.01 13.1596 15.99L19.7796 22.61L21.1896 21.19Z" fill="#FCFCFD"/>
</g>
<defs>
<clipPath id="clip0_20_15195">
<rect width="24" height="24" fill="white"/>
</clipPath>
</defs>
</svg>
