<svg width="24" height="24" viewBox="0 0 24 24" fill="currentColor" xmlns="http://www.w3.org/2000/svg">
<path d="M12 5V1L7 6L12 11V7C15.31 7 18 9.69 18 13C18 16.31 15.31 19 12 19C8.69 19 6 16.31 6 13H4C4 17.42 7.58 21 12 21C16.42 21 20 17.42 20 13C20 8.58 16.42 5 12 5Z"/>
<path d="M9.56035 13.4899H10.0104C10.2204 13.4899 10.3804 13.4399 10.4904 13.3299C10.6004 13.2199 10.6504 13.0799 10.6504 12.8999C10.6504 12.8199 10.6404 12.7499 10.6104 12.6799C10.5804 12.6099 10.5504 12.5599 10.5004 12.5099C10.4504 12.4599 10.3904 12.4199 10.3204 12.3999C10.2504 12.3799 10.1604 12.3599 10.0704 12.3599C9.99035 12.3599 9.92035 12.3699 9.85035 12.3899C9.78035 12.4099 9.72035 12.4399 9.67035 12.4899C9.62035 12.5399 9.58035 12.5799 9.55035 12.6399C9.52035 12.6999 9.50035 12.7699 9.50035 12.8399H8.65035C8.65035 12.6599 8.69035 12.4999 8.76035 12.3599C8.83035 12.2199 8.93035 12.0899 9.06035 11.9899C9.19035 11.8899 9.33035 11.8099 9.50035 11.7599C9.67035 11.7099 9.85035 11.6799 10.0404 11.6799C10.2504 11.6799 10.4504 11.7099 10.6304 11.7599C10.8104 11.8099 10.9604 11.8899 11.0904 11.9899C11.2204 12.0899 11.3204 12.2199 11.3904 12.3699C11.4604 12.5199 11.5004 12.6999 11.5004 12.8999C11.5004 12.9899 11.4904 13.0799 11.4604 13.1699C11.4304 13.2599 11.3904 13.3399 11.3304 13.4199C11.2704 13.4999 11.2104 13.5699 11.1304 13.6399C11.0504 13.7099 10.9604 13.7599 10.8504 13.8099C11.0904 13.8999 11.2704 14.0199 11.3904 14.1999C11.5104 14.3799 11.5704 14.5799 11.5704 14.8099C11.5704 15.0099 11.5304 15.1899 11.4504 15.3399C11.3704 15.4899 11.2704 15.6299 11.1304 15.7299C10.9904 15.8299 10.8404 15.9199 10.6504 15.9699C10.4604 16.0199 10.2704 16.0499 10.0504 16.0499C9.87035 16.0499 9.69035 16.0299 9.52035 15.9799C9.35035 15.9299 9.19035 15.8599 9.06035 15.7499C8.93035 15.6399 8.81035 15.5199 8.73035 15.3699C8.65035 15.2199 8.61035 15.0299 8.61035 14.8199H9.46035C9.46035 14.8999 9.48035 14.9699 9.51035 15.0399C9.54035 15.1099 9.58035 15.1599 9.64035 15.2099C9.70035 15.2599 9.76035 15.2999 9.84035 15.3199C9.92035 15.3399 10.0004 15.3599 10.0904 15.3599C10.1904 15.3599 10.2804 15.3499 10.3604 15.3199C10.4404 15.2899 10.5104 15.2499 10.5604 15.1999C10.6104 15.1499 10.6604 15.0899 10.6904 15.0199C10.7204 14.9499 10.7304 14.8699 10.7304 14.7799C10.7304 14.6699 10.7104 14.5699 10.6804 14.4899C10.6504 14.4099 10.6004 14.3399 10.5404 14.2899C10.4804 14.2399 10.4104 14.1999 10.3204 14.1799C10.2304 14.1599 10.1404 14.1399 10.0304 14.1399H9.56035V13.4899Z"/>
<path d="M15.3002 14.2399C15.3002 14.5599 15.2702 14.8399 15.2002 15.0599C15.1302 15.2799 15.0302 15.4799 14.9102 15.6299C14.7902 15.7799 14.6302 15.8899 14.4602 15.9599C14.2902 16.0299 14.0902 16.0599 13.8702 16.0599C13.6502 16.0599 13.4602 16.0299 13.2802 15.9599C13.1002 15.8899 12.9502 15.7799 12.8202 15.6299C12.6902 15.4799 12.5902 15.2899 12.5202 15.0599C12.4502 14.8299 12.4102 14.5599 12.4102 14.2399V13.4999C12.4102 13.1799 12.4402 12.8999 12.5102 12.6799C12.5802 12.4599 12.6802 12.2599 12.8002 12.1099C12.9202 11.9599 13.0802 11.8499 13.2502 11.7799C13.4202 11.7099 13.6202 11.6799 13.8402 11.6799C14.0602 11.6799 14.2502 11.7099 14.4302 11.7799C14.6102 11.8499 14.7602 11.9599 14.8902 12.1099C15.0202 12.2599 15.1202 12.4499 15.1902 12.6799C15.2602 12.9099 15.3002 13.1799 15.3002 13.4999V14.2399ZM14.4502 13.3799C14.4502 13.1899 14.4402 13.0299 14.4102 12.8999C14.3802 12.7699 14.3402 12.6699 14.2902 12.5899C14.2402 12.5099 14.1802 12.4499 14.1002 12.4199C14.0202 12.3899 13.9402 12.3699 13.8502 12.3699C13.7602 12.3699 13.6702 12.3899 13.6002 12.4199C13.5302 12.4499 13.4602 12.5099 13.4102 12.5899C13.3602 12.6699 13.3202 12.7699 13.2902 12.8999C13.2602 13.0299 13.2502 13.1899 13.2502 13.3799V14.3499C13.2502 14.5399 13.2602 14.6999 13.2902 14.8299C13.3202 14.9599 13.3602 15.0699 13.4102 15.1499C13.4602 15.2299 13.5202 15.2899 13.6002 15.3199C13.6802 15.3499 13.7602 15.3699 13.8502 15.3699C13.9402 15.3699 14.0302 15.3499 14.1002 15.3199C14.1702 15.2899 14.2402 15.2299 14.2902 15.1499C14.3402 15.0699 14.3802 14.9599 14.4002 14.8299C14.4302 14.6999 14.4402 14.5399 14.4402 14.3499V13.3799H14.4502Z"/>
</svg>