<svg width="24" height="24" viewBox="0 0 24 24" xmlns="http://www.w3.org/2000/svg">
<path d="M12 5V1L7 6L12 11V7C15.31 7 18 9.69 18 13C18 16.31 15.31 19 12 19C8.69 19 6 16.31 6 13H4C4 17.42 7.58 21 12 21C16.42 21 20 17.42 20 13C20 8.58 16.42 5 12 5Z"/>
<path d="M10.6903 13.9L10.9403 11.73H13.3303V12.44H11.6303L11.5203 13.36C11.5503 13.34 11.5903 13.33 11.6303 13.31C11.6703 13.29 11.7203 13.27 11.7803 13.26C11.8403 13.25 11.9003 13.23 11.9603 13.22C12.0203 13.21 12.0903 13.2 12.1603 13.2C12.3703 13.2 12.5503 13.23 12.7103 13.3C12.8703 13.37 13.0103 13.46 13.1203 13.58C13.2303 13.7 13.3203 13.85 13.3703 14.03C13.4203 14.21 13.4603 14.41 13.4603 14.63C13.4603 14.82 13.4303 15 13.3703 15.17C13.3103 15.34 13.2203 15.49 13.1003 15.62C12.9803 15.75 12.8303 15.86 12.6503 15.93C12.4703 16 12.2603 16.05 12.0103 16.05C11.8303 16.05 11.6503 16.02 11.4803 15.97C11.3103 15.92 11.1603 15.83 11.0203 15.73C10.8803 15.63 10.7803 15.49 10.7003 15.34C10.6203 15.19 10.5703 15.01 10.5703 14.81H11.4103C11.4303 14.99 11.4903 15.13 11.6003 15.22C11.7103 15.31 11.8503 15.37 12.0203 15.37C12.1303 15.37 12.2203 15.35 12.2903 15.31C12.3603 15.27 12.4303 15.21 12.4703 15.14C12.5103 15.07 12.5503 14.99 12.5803 14.89C12.6103 14.79 12.6103 14.69 12.6103 14.58C12.6103 14.47 12.6003 14.37 12.5703 14.27C12.5403 14.17 12.5003 14.1 12.4403 14.03C12.3803 13.96 12.3103 13.91 12.2303 13.88C12.1503 13.85 12.0403 13.83 11.9303 13.83C11.8503 13.83 11.7803 13.84 11.7303 13.85C11.6803 13.86 11.6203 13.88 11.5803 13.9C11.5403 13.92 11.5003 13.95 11.4603 13.97C11.4203 13.99 11.3903 14.03 11.3603 14.06L10.6903 13.9Z"/>
</svg>