<svg width="24" height="24" viewBox="0 0 24 24" fill="currentColor" xmlns="http://www.w3.org/2000/svg">
<path d="M11.9902 5V1L6.99023 6L11.9902 11V7C15.3002 7 17.9902 9.69 17.9902 13C17.9902 16.31 15.3002 19 11.9902 19C8.68023 19 5.99023 16.31 5.99023 13H3.99023C3.99023 17.42 7.57023 21 11.9902 21C16.4102 21 19.9902 17.42 19.9902 13C19.9902 8.58 16.4102 5 11.9902 5Z"/>
<path d="M10.8903 16H10.0403V12.74L9.03027 13.05V12.36L10.8003 11.73H10.8903V16Z"/>
<path d="M15.1703 14.2399C15.1703 14.5599 15.1403 14.8399 15.0703 15.0599C15.0003 15.2799 14.9003 15.4799 14.7803 15.6299C14.6603 15.7799 14.5003 15.8899 14.3303 15.9599C14.1603 16.0299 13.9603 16.0599 13.7403 16.0599C13.5203 16.0599 13.3303 16.0299 13.1503 15.9599C12.9703 15.8899 12.8203 15.7799 12.6903 15.6299C12.5603 15.4799 12.4603 15.2899 12.3903 15.0599C12.3203 14.8299 12.2803 14.5599 12.2803 14.2399V13.4999C12.2803 13.1799 12.3103 12.8999 12.3803 12.6799C12.4503 12.4599 12.5503 12.2599 12.6703 12.1099C12.7903 11.9599 12.9503 11.8499 13.1203 11.7799C13.2903 11.7099 13.4903 11.6799 13.7103 11.6799C13.9303 11.6799 14.1203 11.7099 14.3003 11.7799C14.4803 11.8499 14.6303 11.9599 14.7603 12.1099C14.8903 12.2599 14.9903 12.4499 15.0603 12.6799C15.1303 12.9099 15.1703 13.1799 15.1703 13.4999V14.2399ZM14.3203 13.3799C14.3203 13.1899 14.3103 13.0299 14.2803 12.8999C14.2503 12.7699 14.2103 12.6699 14.1603 12.5899C14.1103 12.5099 14.0503 12.4499 13.9703 12.4199C13.8903 12.3899 13.8103 12.3699 13.7203 12.3699C13.6303 12.3699 13.5403 12.3899 13.4703 12.4199C13.4003 12.4499 13.3303 12.5099 13.2803 12.5899C13.2303 12.6699 13.1903 12.7699 13.1603 12.8999C13.1303 13.0299 13.1203 13.1899 13.1203 13.3799V14.3499C13.1203 14.5399 13.1303 14.6999 13.1603 14.8299C13.1903 14.9599 13.2303 15.0699 13.2803 15.1499C13.3303 15.2299 13.3903 15.2899 13.4703 15.3199C13.5503 15.3499 13.6303 15.3699 13.7203 15.3699C13.8103 15.3699 13.9003 15.3499 13.9703 15.3199C14.0403 15.2899 14.1103 15.2299 14.1603 15.1499C14.2103 15.0699 14.2503 14.9599 14.2703 14.8299C14.2903 14.6999 14.3103 14.5399 14.3103 14.3499V13.3799H14.3203Z"/>
</svg>