<svg width="24" height="24" viewBox="0 0 24 24" fill="currentColor" xmlns="http://www.w3.org/2000/svg">
<path d="M20.3802 8.57012L19.1502 10.4201C19.7433 11.6032 20.0337 12.915 19.9954 14.2378C19.957 15.5607 19.591 16.8534 18.9302 18.0001H5.07017C4.21134 16.5102 3.85547 14.7832 4.05531 13.0752C4.25516 11.3671 5.00008 9.76895 6.17965 8.51755C7.35922 7.26615 8.91064 6.42816 10.6039 6.12782C12.2972 5.82747 14.0422 6.08076 15.5802 6.85012L17.4302 5.62012C15.5467 4.41234 13.3125 3.87113 11.0851 4.08306C8.85763 4.29499 6.76562 5.24782 5.14367 6.78913C3.52171 8.33045 2.46353 10.3712 2.13839 12.5849C1.81325 14.7987 2.23992 17.0575 3.35017 19.0001C3.52468 19.3024 3.77526 19.5537 4.077 19.7292C4.37875 19.9046 4.72115 19.998 5.07017 20.0001H18.9202C19.2726 20.0015 19.6191 19.9098 19.9247 19.7342C20.2302 19.5586 20.484 19.3053 20.6602 19.0001C21.5815 17.404 22.0439 15.5844 21.9963 13.7421C21.9486 11.8998 21.3928 10.1064 20.3902 8.56012L20.3802 8.57012ZM10.5902 15.4101C10.7759 15.5961 10.9965 15.7436 11.2393 15.8442C11.4821 15.9449 11.7423 15.9967 12.0052 15.9967C12.268 15.9967 12.5283 15.9449 12.7711 15.8442C13.0138 15.7436 13.2344 15.5961 13.4202 15.4101L19.0802 6.92012L10.5902 12.5801C10.4042 12.7659 10.2567 12.9864 10.1561 13.2292C10.0554 13.472 10.0036 13.7323 10.0036 13.9951C10.0036 14.258 10.0554 14.5182 10.1561 14.761C10.2567 15.0038 10.4042 15.2244 10.5902 15.4101Z"/>
</svg>