<svg width="24" height="24" viewBox="0 0 24 24" fill="none" xmlns="http://www.w3.org/2000/svg">
<g clip-path="url(#clip0_20_15407)">
<path d="M3 6H21V11H23V6C23 4.9 22.1 4 21 4H3C1.9 4 1 4.9 1 6V18C1 19.1 1.9 20 3 20H12V18H3V6Z" fill="#FCFCFD"/>
<path d="M15 12L9 8V16L15 12Z" fill="#FCFCFD"/>
<path d="M22.7102 18.43C22.7402 18.14 22.7502 17.85 22.7202 17.57L23.7902 16.72C23.8902 16.64 23.9102 16.51 23.8502 16.4L22.8202 14.61C22.7602 14.5 22.6302 14.46 22.5102 14.5L21.2302 15C21.0002 14.83 20.7502 14.69 20.4802 14.58L20.2802 13.22C20.2602 13.09 20.1602 13 20.0302 13H17.9602C17.8402 13 17.7302 13.09 17.7102 13.21L17.5102 14.57C17.2502 14.68 17.0002 14.83 16.7702 14.99L15.4902 14.49C15.3702 14.44 15.2402 14.49 15.1802 14.6L14.1502 16.39C14.0902 16.5 14.1102 16.63 14.2102 16.71L15.2802 17.57C15.2502 17.86 15.2402 18.15 15.2702 18.43L14.2002 19.28C14.1002 19.36 14.0802 19.49 14.1402 19.6L15.1702 21.39C15.2302 21.5 15.3602 21.54 15.4802 21.5L16.7502 21C16.9802 21.17 17.2302 21.31 17.5002 21.42L17.7002 22.78C17.7202 22.9 17.8202 22.99 17.9502 22.99H20.0202C20.1402 22.99 20.2502 22.9 20.2702 22.78L20.4702 21.42C20.7302 21.31 20.9802 21.16 21.2102 21L22.4902 21.5C22.6102 21.55 22.7402 21.5 22.8002 21.39L23.8302 19.6C23.8902 19.49 23.8702 19.36 23.7702 19.28L22.7102 18.43ZM19.0002 19.5C18.1702 19.5 17.5002 18.83 17.5002 18C17.5002 17.17 18.1702 16.5 19.0002 16.5C19.8302 16.5 20.5002 17.17 20.5002 18C20.5002 18.83 19.8302 19.5 19.0002 19.5Z" fill="#FCFCFD"/>
</g>
<defs>
<clipPath id="clip0_20_15407">
<rect width="24" height="24" fill="white"/>
</clipPath>
</defs>
</svg>
