<svg width="24" height="24" viewBox="0 0 24 24" fill="currentColor" xmlns="http://www.w3.org/2000/svg">
<path d="M20.0004 8.68994V3.99994H15.3104L12.0004 0.689941L8.69043 3.99994H4.00043V8.68994L0.69043 11.9999L4.00043 15.3099V19.9999H8.69043L12.0004 23.3099L15.3104 19.9999H20.0004V15.3099L23.3104 11.9999L20.0004 8.68994ZM12.0004 17.9999C8.69043 17.9999 6.00043 15.3099 6.00043 11.9999C6.00043 8.68994 8.69043 5.99994 12.0004 5.99994C15.3104 5.99994 18.0004 8.68994 18.0004 11.9999C18.0004 15.3099 15.3104 17.9999 12.0004 17.9999ZM12.0004 7.99994C9.79043 7.99994 8.00043 9.78994 8.00043 11.9999C8.00043 14.2099 9.79043 15.9999 12.0004 15.9999C14.2104 15.9999 16.0004 14.2099 16.0004 11.9999C16.0004 9.78994 14.2104 7.99994 12.0004 7.99994Z"/>
</svg>