<svg width="24" height="24" viewBox="0 0 24 24" xmlns="http://www.w3.org/2000/svg">
<path d="M16.4798 2.52C19.7498 4.07 22.0898 7.24 22.4498 11H23.9498C23.4398 4.84 18.2898 0 11.9998 0L11.3398 0.03L15.1498 3.84L16.4798 2.52ZM10.2298 1.75C9.6398 1.16 8.6898 1.16 8.1098 1.75L1.7498 8.11C1.1598 8.7 1.1598 9.65 1.7498 10.23L13.7698 22.25C14.3598 22.84 15.3098 22.84 15.8898 22.25L22.2498 15.89C22.8398 15.3 22.8398 14.35 22.2498 13.77L10.2298 1.75ZM14.8298 21.19L2.8098 9.17L9.1698 2.81L21.1898 14.83L14.8298 21.19ZM7.5198 21.48C4.2498 19.94 1.9098 16.76 1.5498 13H0.0498047C0.559805 19.16 5.7098 24 11.9998 24L12.6598 23.97L8.8498 20.16L7.5198 21.48Z"/>
</svg>