<svg width="24" height="24" viewBox="0 0 24 24" fill="currentColor" xmlns="http://www.w3.org/2000/svg">
<path d="M7.99961 5.00005H9.99961V7.00005H9.09961L11.9996 9.90005V9.00005H19.9996V17.9L21.9996 19.9V7.00005H11.9996V3.00005H5.09961L7.99961 5.90005V5.00005ZM15.9996 11H17.9996V13H15.9996V11ZM1.29961 1.80005L0.0996094 3.10005L1.99961 5.00005V21H17.9996L20.9996 24L22.2996 22.7001L1.29961 1.80005ZM5.99961 19H3.99961V17H5.99961V19ZM5.99961 15H3.99961V13H5.99961V15ZM5.99961 11H3.99961V9.00005H5.99961V11ZM9.99961 19H7.99961V17H9.99961V19ZM9.99961 15H7.99961V13H9.99961V15ZM11.9996 19V17H13.9996L15.9996 19H11.9996Z"/>
</svg>