<svg width="24" height="24" viewBox="0 0 24 24" fill="none" xmlns="http://www.w3.org/2000/svg">
<g clip-path="url(#clip0_20_15672)">
<path d="M19.1 17H22V11C22 9.30005 20.7 8.00005 19 8.00005H10L19.1 17ZM19 10C19.55 10 20 10.45 20 11C20 11.55 19.55 12 19 12C18.45 12 18 11.55 18 11C18 10.45 18.45 10 19 10ZM18 7.00005V3.00005H6V4.10005L9 7.00005H18ZM1.2 1.80005L0 3.00005L4.9 8.00005C3.3 8.10005 2 9.40005 2 11V17H6V21H17.9L20.9 24L22.2 22.7001L1.2 1.80005ZM8 19V14H10.9L15.9 19H8Z" fill="#FCFCFD"/>
</g>
<defs>
<clipPath id="clip0_20_15672">
<rect width="24" height="24" fill="white"/>
</clipPath>
</defs>
</svg>
