<svg width="24" height="24" viewBox="0 0 24 24" xmlns="http://www.w3.org/2000/svg">
<path d="M12.0002 5.10002V9.15002L19.4002 16.55C20.5502 13.67 19.9902 10.27 17.6502 7.94002L12.0002 2.27002L8.56024 5.71002L9.97023 7.12002L12.0002 5.10002ZM4.40023 4.37002L2.99023 5.78002L5.77023 8.56002C3.23023 11.7 3.42023 16.31 6.34023 19.24C7.90023 20.8 9.95023 21.58 12.0002 21.58C13.7802 21.58 15.5602 20.99 17.0202 19.81L19.7202 22.51L21.1302 21.1L4.40023 4.37002ZM12.0002 19.59C10.4002 19.59 8.89023 18.97 7.76023 17.83C6.62023 16.69 6.00023 15.19 6.00023 13.59C6.00023 12.27 6.43023 11.03 7.21023 10L12.0002 14.79V19.59Z"/>
</svg>