<svg width="24" height="24" viewBox="0 0 24 24" fill="currentColor" xmlns="http://www.w3.org/2000/svg">
<path d="M7.00046 3V6H9.00046V4H19.0005V20H9.00046V18H7.00046V21C7.00046 22.1 7.90046 23 9.00046 23H19.0005C20.1005 23 21.0005 22.1 21.0005 21V3C21.0005 1.9 20.1005 1 19.0005 1H9.00046C7.90046 1 7.00046 1.9 7.00046 3ZM9.50046 15.5C9.79046 15.38 10.0505 15.21 10.3005 15.02L10.2805 15.05L11.2905 15.44C11.5205 15.53 11.7805 15.44 11.9005 15.22L12.7405 13.76C12.8605 13.55 12.8105 13.27 12.6205 13.12L11.7705 12.44L11.7505 12.47C11.7705 12.31 11.8005 12.15 11.8005 11.99C11.8005 11.83 11.7705 11.67 11.7505 11.51L11.7705 11.54L12.6205 10.86C12.8105 10.71 12.8605 10.43 12.7405 10.22L11.9005 8.76C11.7805 8.55 11.5205 8.45 11.2905 8.54L10.2805 8.93L10.3005 8.96C10.0505 8.79 9.79046 8.62 9.50046 8.5L9.33046 7.42C9.30046 7.18 9.09046 7 8.84046 7H7.16046C6.91046 7 6.70046 7.18 6.67046 7.42L6.50046 8.5C6.21046 8.62 5.95046 8.79 5.70046 8.98L5.72046 8.95L4.70046 8.56C4.47046 8.47 4.21046 8.56 4.09046 8.78L3.25046 10.24C3.13046 10.45 3.18046 10.73 3.37046 10.88L4.22046 11.56L4.24046 11.53C4.22046 11.68 4.19046 11.84 4.19046 12C4.19046 12.16 4.22046 12.32 4.24046 12.48L4.22046 12.45L3.37046 13.13C3.18046 13.28 3.13046 13.56 3.25046 13.77L4.09046 15.23C4.21046 15.44 4.47046 15.54 4.70046 15.45L5.71046 15.06L5.70046 15.02C5.95046 15.21 6.21046 15.38 6.50046 15.5L6.67046 16.57C6.70046 16.82 6.91046 17 7.16046 17H8.84046C9.09046 17 9.30046 16.82 9.33046 16.58L9.50046 15.5ZM6.00046 12C6.00046 10.9 6.90046 10 8.00046 10C9.10046 10 10.0005 10.9 10.0005 12C10.0005 13.1 9.10046 14 8.00046 14C6.90046 14 6.00046 13.1 6.00046 12Z"/>
</svg>