<svg width="24" height="24" viewBox="0 0 24 24" xmlns="http://www.w3.org/2000/svg">
<path d="M17.3396 14.5401L15.9096 13.1101C16.4696 12.3801 16.9596 11.6101 17.3796 10.7901L15.1796 8.59006C14.8996 8.31006 14.8196 7.92006 14.9296 7.57006C15.2996 6.45006 15.4996 5.25006 15.4996 4.00006C15.4996 3.45006 15.9496 3.00006 16.4996 3.00006H19.9996C20.5496 3.00006 20.9996 3.45006 20.9996 4.00006C20.9996 7.98006 19.6296 11.6401 17.3396 14.5401ZM14.5196 17.3501C11.6296 19.6401 7.96965 21.0001 3.99965 21.0001C3.44965 21.0001 2.99965 20.5501 2.99965 20.0001V16.5101C2.99965 15.9601 3.44965 15.5101 3.99965 15.5101C5.23965 15.5101 6.44965 15.3101 7.56965 14.9401C7.66965 14.9001 7.77965 14.8901 7.87965 14.8901C8.13965 14.8901 8.38965 14.9901 8.58965 15.1801L10.7896 17.3801C11.5996 16.9601 12.3696 16.4801 13.0896 15.9201L1.38965 4.22006L2.80965 2.81006L21.1896 21.2001L19.7796 22.6101L14.5196 17.3501ZM7.59965 17.0201C6.74965 17.2601 5.87965 17.4101 4.99965 17.4701V18.9601C6.31965 18.8701 7.58965 18.6101 8.79965 18.2101L7.59965 17.0201ZM17.4596 5.00006C17.3996 5.89006 17.2496 6.76006 17.0096 7.59006L18.2096 8.79006C18.6196 7.59006 18.8796 6.32006 18.9696 5.00006H17.4596Z"/>
</svg>