<svg width="24" height="24" viewBox="0 0 24 24" xmlns="http://www.w3.org/2000/svg">
<path d="M2 22L16 17L7 8L2 22Z"/>
<path d="M14.5302 12.5299L20.1202 6.93989C20.6102 6.44989 21.4002 6.44989 21.8902 6.93989L22.4802 7.52989L23.5402 6.46989L22.9502 5.87989C21.8802 4.80989 20.1302 4.80989 19.0602 5.87989L13.4702 11.4699L14.5302 12.5299Z"/>
<path d="M10.0602 6.87996L9.47021 7.46996L10.5302 8.52996L11.1202 7.93996C12.1902 6.86996 12.1902 5.11996 11.1202 4.04996L10.5302 3.45996L9.47021 4.52996L10.0602 5.11996C10.5402 5.59996 10.5402 6.39996 10.0602 6.87996Z"/>
<path d="M17.0602 11.8799L15.4702 13.4699L16.5302 14.5299L18.1202 12.9399C18.6102 12.4499 19.4002 12.4499 19.8902 12.9399L21.5002 14.5499L22.5602 13.4899L20.9502 11.8799C19.8702 10.8099 18.1302 10.8099 17.0602 11.8799Z"/>
<path d="M15.0602 5.87996L11.4702 9.46996L12.5302 10.53L16.1202 6.93996C17.1902 5.86996 17.1902 4.11996 16.1202 3.04996L14.5302 1.45996L13.4702 2.51996L15.0602 4.10996C15.5402 4.59996 15.5402 5.39996 15.0602 5.87996Z"/>
</svg>