<svg width="24" height="24" viewBox="0 0 24 24" fill="none" xmlns="http://www.w3.org/2000/svg">
<g clip-path="url(#clip0_20_19096)">
<path d="M17 5.00005C17.83 5.00005 18.5 4.33005 18.5 3.50005C18.5 2.50005 17 0.800049 17 0.800049C17 0.800049 15.5 2.50005 15.5 3.50005C15.5 4.33005 16.17 5.00005 17 5.00005ZM12 5.00005C12.83 5.00005 13.5 4.33005 13.5 3.50005C13.5 2.50005 12 0.800049 12 0.800049C12 0.800049 10.5 2.50005 10.5 3.50005C10.5 4.33005 11.17 5.00005 12 5.00005ZM7 5.00005C7.83 5.00005 8.5 4.33005 8.5 3.50005C8.5 2.50005 7 0.800049 7 0.800049C7 0.800049 5.5 2.50005 5.5 3.50005C5.5 4.33005 6.17 5.00005 7 5.00005ZM18.92 8.01005C18.72 7.42005 18.16 7.00005 17.5 7.00005H6.5C5.84 7.00005 5.29 7.42005 5.08 8.01005L3 14V22C3 22.55 3.45 23 4 23H5C5.55 23 6 22.55 6 22V21H18V22C18 22.55 18.45 23 19 23H20C20.55 23 21 22.55 21 22V14L18.92 8.01005ZM6.5 18C5.67 18 5 17.33 5 16.5C5 15.67 5.67 15 6.5 15C7.33 15 8 15.67 8 16.5C8 17.33 7.33 18 6.5 18ZM17.5 18C16.67 18 16 17.33 16 16.5C16 15.67 16.67 15 17.5 15C18.33 15 19 15.67 19 16.5C19 17.33 18.33 18 17.5 18ZM5 13L6.5 8.50005H17.5L19 13H5Z" fill="#FCFCFD"/>
</g>
<defs>
<clipPath id="clip0_20_19096">
<rect width="24" height="24" fill="white"/>
</clipPath>
</defs>
</svg>
