<svg width="24" height="24" viewBox="0 0 24 24" xmlns="http://www.w3.org/2000/svg">
<path d="M21.1901 21.19L2.81014 2.81L1.39014 4.22L4.00014 6.83V16C4.00014 16.88 4.39014 17.67 5.00014 18.22V20C5.00014 20.55 5.45014 21 6.00014 21H7.00014C7.55014 21 8.00014 20.55 8.00014 20V19H16.0001V20C16.0001 20.55 16.4501 21 17.0001 21H18.0001C18.0501 21 18.0901 20.98 18.1401 20.97L19.7801 22.61L21.1901 21.19ZM7.50014 17C6.67014 17 6.00014 16.33 6.00014 15.5C6.00014 14.67 6.67014 14 7.50014 14C8.33014 14 9.00014 14.67 9.00014 15.5C9.00014 16.33 8.33014 17 7.50014 17ZM6.00014 11V8.83L8.17014 11H6.00014ZM8.83014 6L5.78014 2.95C7.24014 2.16 9.48014 2 12.0001 2C16.4201 2 20.0001 2.5 20.0001 6V16C20.0001 16.35 19.9201 16.67 19.8101 16.98L13.8301 11H18.0001V6H8.83014Z"/>
</svg>